<?xml version="1.0" encoding="UTF-8" standalone="no"?>
<svg
   version="1.1"
   id="svg163"
   sodipodi:docname="gabarito.svg"
   inkscape:version="1.2.2 (b0a8486541, 2022-12-01)"
   width="669"
   height="435"
   xmlns:inkscape="http://www.inkscape.org/namespaces/inkscape"
   xmlns:sodipodi="http://sodipodi.sourceforge.net/DTD/sodipodi-0.dtd"
   xmlns="http://www.w3.org/2000/svg"
   xmlns:svg="http://www.w3.org/2000/svg">
  <defs
     id="defs167" />
  <sodipodi:namedview
     id="namedview165"
     pagecolor="#ffffff"
     bordercolor="#000000"
     borderopacity="0.25"
     inkscape:showpageshadow="2"
     inkscape:pageopacity="0.0"
     inkscape:pagecheckerboard="0"
     inkscape:deskcolor="#d1d1d1"
     showgrid="false"
     inkscape:zoom="1.4142136"
     inkscape:cx="167.58431"
     inkscape:cy="244.30539"
     inkscape:window-width="1366"
     inkscape:window-height="711"
     inkscape:window-x="0"
     inkscape:window-y="0"
     inkscape:window-maximized="1"
     inkscape:current-layer="svg163" />
  <g
     class="state"
     id="columbia"
     ev="3"
     transform="translate(-64.420367)">
    <path
       d="m 634.40455,181.0351 -1.61133,0.82031 0.50391,0.41211 0.54101,2.41406 1.92579,-0.98242 z"
       id="path2" />
  </g>
  <g
     class="state"
     id="maine"
     ev="4"
     transform="translate(-64.420367)">
    <path
       d="m 699.13867,29.095703 -4.42383,3.71875 -2.60546,1.277344 -2.0586,-3.423828 -1.48242,-0.167969 -4.41016,14.40625 -0.66601,4.867188 0.043,8.925781 -2.41797,4.576172 0.22265,2.908203 -1.6914,1.767578 -1.24219,0.490234 9.31836,29.59375 3.83984,2.703124 -0.082,-2.755858 2.68164,-6.058594 0.90235,-3.550781 4.07617,-0.734375 5.38281,-3.90625 0.16406,-8.804688 5.06446,2.820313 7.58203,-6.894531 6.52929,-7.177735 -4.02929,-5.8125 -2.47656,1.34961 -2.16797,-5.789063 -4.7793,-0.582031 -5.1582,-20.53125 z"
       id="path5" />
  </g>
  <g
     class="state"
     id="rhodeisland"
     ev="4"
     transform="translate(-64.420367)">
    <path
       d="m 686.38281,130.875 3.66992,-1.44922 -0.49609,-3.91016 0.61719,-1.03906 1.55664,3.21094 2.02148,-1.16602 -1.14453,-1.80859 -1.43359,-0.91797 -1.2168,-1.05469 -0.92969,-2.29687 -1.95507,-0.62891 -1.66016,0.47461 -1.98047,0.44532 0.10547,0.19335 z"
       id="path8" />
  </g>
  <g
     class="state"
     id="newhampshire"
     ev="4"
     transform="translate(-64.420367)">
    <path
       d="m 691.56445,100.73828 -3.83984,-2.703124 -9.31836,-29.59375 -3.04297,1.199219 -0.56055,4.492187 -0.0371,0.0098 0.75391,0.44336 -0.0645,2.732421 -1.16602,0.851563 2.84375,2.748047 -0.42383,1.615234 h -1.39062 l -0.6875,1.865235 -2.26172,1.800781 0.35742,8.152343 -0.98047,1.78711 -0.35351,6.970704 1.33008,1.20117 -0.0234,5.89062 0.57617,1.57031 -0.0273,0.16797 7.85742,-1.79101 5.54883,-1.27149 1.31445,-1.98047 2.76953,-2.27929 0.92969,-0.33203 z"
       id="path11" />
  </g>
  <g
     class="state"
     id="vermont"
     ev="3"
     transform="translate(-64.420367)">
    <path
       d="m 673.24805,111.93945 0.0273,-0.16797 -0.57617,-1.57031 0.0234,-5.89062 -1.33008,-1.20117 0.35351,-6.970708 0.98047,-1.78711 -0.35742,-8.152343 2.26172,-1.800781 0.6875,-1.865235 h 1.39062 l 0.42383,-1.615234 -2.84375,-2.748047 1.16602,-0.851563 0.0645,-2.732421 -0.75391,-0.44336 -19.45898,4.650391 0.24805,5.90625 1.61914,2.394531 1.61328,1.173828 v 2 l -0.74805,1.210938 -0.3789,2.259765 1.75195,4.669922 -0.0547,1.349609 2.80274,0.958988 0.74023,6.86914 1.5918,5.82617 0.01,0.23242 2.40235,0.0918 5.9414,-1.70508 z"
       id="path14" />
  </g>
  <g
     class="state"
     id="massachusetts"
     ev="11"
     transform="translate(-64.420367)">
    <path
       d="m 664.83984,124.46094 18.25782,-3.65039 2.31445,-0.52149 1.66016,-0.47461 1.95507,0.62891 0.92969,2.29687 1.2168,1.05469 1.43359,0.91797 1.14453,1.80859 0.12305,-0.0703 2.72852,-4.36914 1.56445,3.08203 7.57422,-4.96484 -1,-3.50391 -2.36133,-1.34765 1.11719,3.19531 -3.29493,2.1543 -5.66601,-6.92579 -3.36328,0.84571 -0.36719,-2.30664 2.99609,-2.78321 0.72657,-2.00976 -2.79102,-0.81836 -0.0703,-2.41406 -0.92969,0.33203 -2.76953,2.27929 -1.31445,1.98047 -5.54883,1.27149 -8.25977,1.88281 -5.9414,1.70508 -2.40235,-0.0918 0.42383,10.08594 z"
       id="path17" />
  </g>
  <g
     class="state"
     id="connecticut"
     ev="7"
     transform="translate(-64.420367)">
    <path
       d="m 686.38281,130.875 -2.8457,-9.94727 -0.10547,-0.19335 -0.33398,0.0762 -18.25782,3.65039 -0.37304,3.14844 1.11718,2.57812 0.74219,4.24805 1.22656,3.57422 -1.89453,3.18945 1.42383,1.00195 5.0293,-5.125 11.25195,-5.00976 z"
       id="path20" />
  </g>
  <g
     class="state"
     id="newjersey"
     ev="14"
     transform="translate(-64.420367)">
    <path
       d="m 653.27539,138.79297 -0.55273,0.58789 -1.2461,2.75781 -0.98242,2.34766 -0.57031,1.92773 0.57226,1.95508 -0.33203,1.7832 0.35938,1.69141 1.69336,1.58984 1.72851,1.80664 1.83399,1.35547 1.24023,1.45313 -3.18945,2.95312 -0.38477,1.85157 -2.33398,1.39453 -0.44727,-0.0664 -0.1582,0.79492 -1.02734,2.98047 0.15234,1.25391 1.48828,1.45312 0.86133,0.73438 6.10742,1.26172 -0.14258,3.10937 1.64258,0.94141 1.83008,-4.61328 3.09375,-6.07032 0.89062,-13.54882 -2.99609,-0.91407 0.43164,-3.92773 0.27539,0.0977 1.11914,-2.9629 -1.20898,-2.95117 z"
       id="path23" />
  </g>
  <g
     class="state"
     id="delaware"
     ev="3"
     transform="translate(-64.420367)">
    <path
       d="m 651.11914,170.66406 -1.48828,-1.45312 -0.15234,-1.25391 1.02734,-2.98047 0.1582,-0.79492 -1.74804,-0.26172 -1.83204,2.27149 -1.05078,0.9414 -0.01,0.0176 0.32226,-0.0586 5.59961,18.69336 7.47657,-0.87305 0.0215,-0.0625 -2.62891,-5.38867 -7.39257,-10.24219 z"
       id="path26" />
  </g>
  <g
     class="state"
     id="newyork"
     ev="28"
     transform="translate(-64.420367)">
    <path
       d="m 655.30664,78.792969 -16.66406,3.982422 -7.36719,10.298828 -3.64258,3.542969 -3.17578,3.988282 3.88672,1.44726 -0.29883,6.41993 -8.26367,7.0332 h -7.05664 l -6.80859,0.69531 -7.3125,3.39453 -0.42383,2.00391 2.625,2.13086 -0.14844,4.12109 -7.58008,8.39258 -0.0996,0.0703 0.78516,3.97852 49.32422,-9.62695 2.65234,1.61328 1.00195,-0.26368 1.22071,1.4668 0.42187,1.16797 0.58399,2.2207 1.09961,0.77149 1.87695,0.15039 0.79883,0.82617 0.3457,0.37305 0.1875,-0.19922 9.74805,3.02734 1.20898,2.95117 -0.7168,1.89649 0.82455,1.59454 1.32194,-0.0906 4.89062,-1.08399 15.57032,-10.68555 -5.23243,-0.0996 -11.83398,6.625 -2.33789,-0.35546 0.36328,-0.3711 -1.42383,-1.00195 1.89453,-3.18945 -1.22656,-3.57422 -0.74219,-4.24805 -1.11718,-2.57812 0.45898,-3.87891 -0.43359,-10.31836 -1.5918,-5.82617 -0.74023,-6.86914 -2.80274,-0.958988 0.0547,-1.349609 -1.75195,-4.669922 0.3789,-2.259765 0.74805,-1.210938 v -2 l -1.61328,-1.173828 -1.61914,-2.394531 z"
       id="path29" />
  </g>
  <g
     class="state"
     id="maryland"
     ev="10"
     transform="translate(-64.420367)">
    <path
       d="m 644.34375,193.74609 -3.87305,-9.84179 0.61524,-11.66016 3.06836,0.77539 0.7539,14.72656 3.27344,1.9961 4.26367,4.05469 -0.10156,13.91992 3.25195,-9.39649 1.69922,-7.18164 2.12696,-6.22656 -7.47657,0.87305 -5.59961,-18.69336 -42.67578,7.83984 0.14453,1.60547 0.0137,3.30273 -0.60156,3.36914 2.04102,-1.58398 3.73047,-4.25586 4.08984,-1.23437 1.95508,-0.30079 1.80273,-0.82031 2.21875,-0.6582 2.52735,0.44922 1.74609,0.45508 1.2832,1.75585 3.22461,0.83399 0.32983,3.1948 3.61672,-0.007 0.99565,0.80495 1.62259,-0.81971 1.36867,2.6803 -1.90602,0.99788 0.25763,1.12657 -2.57031,1.05664 0.30273,4.3418 1.52718,1.27166 2.82643,-1.30418 1.85937,1.0293 2.49414,0.88086 3.53516,0.52929 z"
       id="path32"
       sodipodi:nodetypes="cccccccccccccccccccccccccccccccccccccccccc" />
  </g>
  <g
     class="state"
     id="pennsylvania"
     ev="19"
     transform="translate(-64.420367)">
    <path
       d="m 653.08789,138.99219 -0.3457,-0.37305 -0.79883,-0.82617 -1.87695,-0.15039 -1.09961,-0.77149 -0.58399,-2.2207 -0.42187,-1.16797 -1.22071,-1.4668 -1.00195,0.26368 -2.65234,-1.61328 -49.32422,9.62695 -0.78516,-3.97852 -8.0332,5.70703 6.2832,35.19532 54.79688,-10.06641 0.01,-0.0176 1.05078,-0.9414 1.83204,-2.27149 2.19531,0.32813 2.33398,-1.39453 0.38477,-1.85157 3.18945,-2.95312 -1.24023,-1.45313 -1.83399,-1.35547 -1.72851,-1.80664 -1.69336,-1.58984 -0.35938,-1.69141 0.33203,-1.7832 -0.57226,-1.95508 0.57031,-1.92773 0.98242,-2.34766 1.2461,-2.75781 z"
       id="path35" />
  </g>
  <g
     class="state"
     id="westvirginia"
     ev="4"
     transform="translate(-64.420367)">
    <path
       d="m 588.78906,163.56445 -0.97461,0.17188 -0.91406,0.24609 -0.73242,0.6582 0.93359,0.9668 0.375,1.01758 0.16211,1.56445 v 1.83594 l -0.37695,3.30664 -0.0605,1.72656 -0.12109,0.84571 -0.70508,0.16601 -0.0195,3.32813 -0.30274,0.73242 -0.57031,0.81836 -1.29687,0.40234 0.12304,1.21094 -0.59179,0.48633 -0.89063,0.79492 -0.86914,1.04102 -0.57422,0.33203 -0.73242,-0.73242 -1.04297,0.55664 -0.1875,0.41406 -0.1875,0.90039 -1.22461,0.58789 -1.13086,1.07031 0.36133,1.35156 v 1.5586 l 0.16797,1.35937 -1.04297,0.97266 -1.14062,-1.63477 -0.74805,-0.23828 -1.44531,1.15821 0.58984,1.51757 -0.14844,0.78907 -1.0957,0.36328 -0.41016,1.04883 1.10938,0.48632 0.42383,0.33594 0.125,1.33008 -1.18555,0.1875 -0.17188,1.45703 0.084,0.89844 -1.53516,0.53125 -1.25781,0.4414 -0.36719,4.69336 0.83203,0.58399 0.71875,0.0879 0.42969,0.7832 0.21875,1.05664 0.26367,0.49805 0.91407,0.72852 1.16797,1.00195 0.60937,0.80859 0.56641,0.63867 0.87304,0.74805 0.63868,0.86719 1.08398,-0.0371 1.04883,-0.50977 0.084,1.03907 0.19336,0.70898 -0.375,0.33008 3.58008,2.64453 2.11133,0.0723 0.99023,-1.37696 1.78711,-1.21094 1.88867,1.06446 2.86328,-0.88086 0.92383,-2.0625 0.98047,0.66992 4.19727,-2.22461 1.01367,-2.97266 -0.69922,-1.99609 1.00586,-1.09961 1.95117,-2.97656 1.19922,-2.98828 1.20117,-2.6875 0.83789,-4.63477 3.00586,1.83985 2.04492,-0.67579 1.93946,-6.37304 h 1.80078 l 4.02539,-6.17774 -1.10742,-1.39648 1.68164,-3.83789 6.44726,3.1289 0.40039,-2.01562 0.30078,-0.71875 -0.20703,-0.0527 -1.2832,-1.75585 -1.74609,-0.45508 -2.52735,-0.44922 -2.21875,0.6582 -1.80273,0.82031 -1.95508,0.30079 -4.08984,1.23437 -3.73047,4.25586 -2.04102,1.58398 0.60156,-3.36914 -0.0137,-3.30273 -0.14453,-1.60547 -12.44336,2.28516 z"
       id="path38" />
  </g>
  <g
     class="state"
     id="virginia"
     ev="13"
     transform="translate(-64.420367)">
    <path
       d="m 624.82812,177.06836 -0.30078,0.71875 -0.40039,2.01562 -6.44726,-3.1289 -1.68164,3.83789 1.10742,1.39648 -4.02539,6.17774 h -1.80078 l -1.93946,6.37304 -2.04492,0.67579 -3.00586,-1.83985 -0.83789,4.63477 -1.20117,2.6875 -1.19922,2.98828 -1.95117,2.97656 -1.00586,1.09961 0.69922,1.99609 -1.01367,2.97266 -4.19727,2.22461 -0.98047,-0.66992 -0.92383,2.0625 -2.86328,0.88086 -1.88867,-1.06446 -1.78711,1.21094 -0.99023,1.37696 -2.11133,-0.0723 -3.58008,-2.64453 -3.33594,2.93164 -2.625,3.25195 -2.05664,0.3086 -0.15625,2.16406 -1.14258,1.49805 -0.98828,1.26953 -1.52148,-0.17774 -0.32813,2.64453 -2.02343,0.45703 -0.54297,1.00196 20.24219,-2.73438 28.39062,-3.30859 44.18945,-8.85547 -2.02343,-4.06836 -5.55469,-2.50977 -4.28125,-15.17773 -0.35547,-0.9043 -0.23828,-0.11328 -3.53516,-0.52929 -2.49414,-0.88086 -1.85937,-1.0293 -2.85938,1.29102 -1.53125,-1.26172 -0.30273,-4.3418 2.57031,-1.05664 -0.79687,-3.55664 -1.51368,-1.23633 h -3.64062 l -0.29688,-3.18164 z"
       id="path41" />
  </g>
  <g
     class="state"
     id="southcarolina"
     ev="9"
     transform="translate(-64.420367)">
    <path
       d="m 560.43555,257.85547 10.34961,-1.61914 -3.32813,5.19922 4.51758,2.70312 2.89062,0.36133 3.86329,6.5332 2.19531,1.70703 7.36328,4.50391 0.86328,3.1543 4.75195,3.25781 4.29883,4.89844 -0.35351,2.08984 1.76562,0.15039 2.34766,4.16016 0.46679,2 1.45313,1.69726 2.11133,1.68164 2.55469,-5.23242 8.61328,-9.13672 5.97656,-6.125 6.67187,-14.17382 -15.85351,-12.66797 -13.43555,2.35937 -2.01367,-2.69922 -3.29883,-2.41406 -14.25976,1.38672 -10.46875,4.15234 z"
       id="path44" />
  </g>
  <g
     class="state"
     id="northcarolina"
     ev="16"
     transform="translate(-64.420367)">
    <path
       d="m 560.43555,257.85547 10.04297,-2.07227 10.46875,-4.15234 14.25976,-1.38672 3.29883,2.41406 2.01367,2.69922 13.43555,-2.35937 15.85351,12.66797 0.38868,-0.82618 6.57421,-0.84765 1.41407,-6.71875 8.74804,-8.21875 7.04102,-2.58789 1.74414,-3.80469 -3.2207,-0.66016 0.45898,-5.82031 3.79492,-0.54102 4.69727,-9.40429 -4.89063,-9.83008 -44.18945,8.85547 -27.74219,3.23242 -0.59375,1.19141 0.72852,2.21289 -2.66992,1.95508 -1,3.02539 -1.76953,-0.74805 -4.0293,3.83398 -1.44727,-1.34765 -4.49023,3.59179 0.16601,2.42969 -2.54101,1.30078 -3.13672,2.58594 -4.06836,0.65625 -3.48828,4.92188 -1.33789,0.70898 -1.47656,3.53516 1.22461,0.40625 z"
       id="path47" />
  </g>
  <g
     class="state"
     id="ohio"
     ev="17"
     transform="translate(-64.420367)">
    <path
       d="m 584.94336,142.02148 -0.34766,0.24805 -7.13086,3.70117 -7.77148,6.2461 -10.50586,1.34179 -6.92383,-2.99609 -0.82812,0.95312 -15.08203,1.6875 4.60351,40.57813 0.98438,0.23633 1.92578,0.27539 h 1.71289 l 2.4414,1.59961 0.47852,1.67969 1.26367,0.70507 3.29492,0.24414 2.3711,1.79102 2.06054,-1.73633 1.38477,1.37891 2.56445,-0.125 1.4961,-1.33399 0.375,-1.66406 1.39453,0.73047 1.18554,1.15625 0.625,1.40625 0.80469,0.36328 1.21875,0.21875 1.14844,1.17383 1.12695,-0.39453 1.53516,-0.53125 -0.084,-0.89844 0.17188,-1.45703 1.18555,-0.1875 -0.125,-1.33008 -0.42383,-0.33594 -1.10938,-0.48632 0.41016,-1.04883 1.0957,-0.36328 0.14844,-0.78907 -0.58984,-1.51757 1.44531,-1.15821 0.74805,0.23828 1.14062,1.63477 1.04297,-0.97266 -0.16797,-1.35937 v -1.5586 l -0.36133,-1.35156 1.13086,-1.07031 1.22461,-0.58789 0.1875,-0.90039 0.1875,-0.41406 1.04297,-0.55664 0.73242,0.73242 0.57422,-0.33203 0.86914,-1.04102 0.89063,-0.79492 0.59179,-0.48633 -0.12304,-1.21094 1.29687,-0.40234 0.57031,-0.81836 0.30274,-0.73242 0.0195,-3.32813 0.70508,-0.16601 0.12109,-0.84571 0.0605,-1.72656 0.37695,-3.30664 v -1.83594 l -0.16211,-1.56445 -0.375,-1.01758 -0.93359,-0.9668 0.73242,-0.6582 0.91406,-0.24609 0.97461,-0.17188 z"
       id="path50" />
  </g>
  <g
     class="state"
     id="georgia"
     ev="16"
     transform="translate(-64.420367)">
    <path
       d="m 552.93555,322.30469 0.17187,-0.0274 3.00977,4.70899 16.4082,-1.38281 18.4707,-1.10938 0.71289,2.45898 1.86524,1.01954 1.51172,-1.39454 -0.43946,-3.13476 -1.45117,-1.0293 0.15625,-0.85156 0.55664,-0.58594 1.88672,-1.74218 2.2461,1.3789 3.30664,-0.17578 -0.0801,-0.22656 2.3164,-14.94922 2.40821,-4.92774 -2.11133,-1.68164 -1.45313,-1.69726 -0.46679,-2 -2.34766,-4.16016 -1.76562,-0.15039 0.35351,-2.08984 -4.29883,-4.89844 -4.75195,-3.25781 -0.86328,-3.1543 -7.36328,-4.50391 -2.19531,-1.70703 -3.86329,-6.5332 -2.89062,-0.36133 -4.51758,-2.70312 3.32813,-5.19922 -16.08789,2.51758 -1.22461,-0.40625 -0.0859,0.20898 -14.5586,2.50391 -0.5664,0.041 0.4043,0.96485 2.2832,7.40039 2.3125,9.53515 2.68555,9.30664 1.66992,5.68946 2.20312,3.09765 2.46875,5.85352 c 0,0 -0.52288,0.11435 -0.99804,0.26953 -0.23759,0.0776 -0.46294,0.16555 -0.60547,0.25391 -0.0713,0.0442 -0.12181,0.0894 -0.14258,0.13281 -0.0208,0.0434 -0.0104,0.0848 0.0371,0.125 0.0475,0.0402 0.088,0.13086 0.125,0.25781 0.037,0.12695 0.0699,0.29105 0.0977,0.47852 0.0556,0.37493 0.0946,0.84304 0.1211,1.30273 0.0531,0.91939 0.0586,1.79883 0.0586,1.79883 l -1.25586,3.18359 1.94727,2.25586 0.0137,4.32813 -0.0957,1.16015 z"
       id="path53" />
  </g>
  <g
     class="state"
     id="indiana"
     ev="11"
     transform="translate(-64.420367)">
    <path
       d="m 503.80859,219.85742 0.14063,-0.22656 1.03516,-0.19922 0.95898,-1.00976 -0.41406,-1.44922 2.41797,0.74414 0.85546,0.17968 0.38086,-1.7246 1.09766,0.6914 1.24609,-0.50195 1.0586,0.61328 1.00976,0.70508 1.3711,0.53125 1.21289,-0.35156 0.35351,-1.60938 1.00586,-0.49609 0.80469,-1.07032 0.73242,1.01758 2.48047,1.13672 1.05469,-4.0918 1.54492,-1.64648 0.61719,0.86523 1.28711,1.04493 1.96679,0.85351 1.28711,-0.42969 0.18164,-3.00195 0.75,-1.18945 1.19336,-0.46289 1.74414,-2.78516 1.53516,-1.31445 -0.29883,-3.01172 0.81055,-0.65039 1.8418,1.35742 0.98242,-1.76562 1.39062,-0.25586 1.40625,-0.38282 0.99219,-0.58398 -0.13477,-1.15625 -0.99609,-0.47852 -0.55273,-2.80468 0.875,-0.47266 -4.64258,-40.92773 -23.46485,1.09179 -0.0488,-0.0371 -5.31055,3.19141 -1.84375,-0.20117 0.0391,0.63281 -1.47851,0.23633 0.70117,4.77734 0.76172,7.87891 0.33984,2.03711 0.17188,5.96679 0.0117,5.84961 1.39454,0.68946 -0.002,9.67382 -1.21679,1.19922 0.29101,1.4375 1.05078,1.42188 0.0625,1.24609 0.75,1.71875 1.05274,0.50781 -1.08399,1.18946 0.0547,0.9082 -0.53516,1.62109 -1.36914,1.3086 -0.98828,1.33008 -0.002,1.18359 -1.03711,0.95117 -0.11133,2.4043 0.16211,1.32617 -1.26367,0.49609 -0.39453,1.43555 0.30273,1.23633 0.0606,1.0957 c 0,0 0.22936,0.31929 0.35937,0.50586 z"
       id="path56" />
  </g>
  <g
     class="state"
     id="kentucky"
     ev="8"
     transform="translate(-64.420367)">
    <path
       d="m 569.6875,201.88086 -1.14844,-1.17383 -1.21875,-0.21875 -0.80469,-0.36328 -0.625,-1.40625 -1.18554,-1.15625 -1.39453,-0.73047 -0.375,1.66406 -1.4961,1.33399 -2.56445,0.125 -1.38477,-1.37891 -2.06054,1.73633 -2.3711,-1.79102 -3.29492,-0.24414 -1.26367,-0.70507 -0.47852,-1.67969 -2.4414,-1.59961 h -1.71289 l -1.92578,-0.27539 -0.98438,-0.23633 0.0781,0.69336 -0.875,0.47266 0.55273,2.80468 0.99609,0.47852 0.13477,1.15625 -0.99219,0.58398 -1.40625,0.38282 -1.39062,0.25586 -0.98242,1.76562 -1.8418,-1.35742 -0.81055,0.65039 0.29883,3.01172 -1.53516,1.31445 -1.74414,2.78516 -1.19336,0.46289 -0.75,1.18945 -0.18164,3.00195 -1.28711,0.42969 -1.96679,-0.85351 -1.28711,-1.04493 -0.61719,-0.86523 -1.54492,1.64648 -1.05469,4.0918 -2.48047,-1.13672 -0.73242,-1.01758 -0.80469,1.07032 -1.00586,0.49609 -0.35351,1.60938 -1.21289,0.35156 -1.3711,-0.53125 -1.00976,-0.70508 -1.0586,-0.61328 -1.24609,0.50195 -1.09766,-0.6914 -0.38086,1.7246 -0.85546,-0.17968 -2.41797,-0.74414 0.41406,1.44922 -0.95898,1.00976 -1.03516,0.19922 -0.80078,1.2793 -0.0703,1.26953 0.9629,1.03515 c 0,0 0.0209,0.21994 0.01,0.47266 -0.0111,0.25272 -0.054,0.53725 -0.17773,0.66797 -0.12373,0.13071 -0.7156,0.22064 -1.27735,0.27734 -0.56175,0.0567 -1.09179,0.0801 -1.09179,0.0801 l -1.04883,1.08594 -1.03711,0.21875 -0.74609,1.4043 0.30664,0.99023 0.87109,0.73242 0.13672,1.57617 -1.34571,0.0801 -2.48242,-0.80859 -2.21289,-1.12305 -0.85937,0.90625 -1.44141,1.16211 -0.6582,0.7168 -0.0488,0.95312 0.90039,0.51367 v 1.22266 l 0.26758,2.22656 -0.86524,0.3125 -0.37304,0.78125 0.69726,0.88282 -0.78906,0.61718 -1.43945,-0.37695 -0.91211,1.13281 0.33398,0.85156 16.25781,-1.44336 1.04688,-2.99414 26.6582,-0.83789 31.01563,-4.1914 0.54297,-1.00196 2.02343,-0.45703 0.32813,-2.64453 1.52148,0.17774 0.98828,-1.26953 1.14258,-1.49805 0.15625,-2.16406 2.05664,-0.3086 2.625,-3.25195 3.71094,-3.26172 -0.19336,-0.70898 -0.084,-1.03907 -1.04883,0.50977 -1.08398,0.0371 -0.63868,-0.86719 -0.87304,-0.74805 -0.56641,-0.63867 -0.60937,-0.80859 -1.16797,-1.00195 -0.91407,-0.72852 -0.26367,-0.49805 -0.21875,-1.05664 -0.42969,-0.7832 -0.71875,-0.0879 -0.83203,-0.58399 0.36719,-4.69336 z"
       id="path59" />
  </g>
  <g
     class="state"
     id="tennessee"
     ev="11"
     transform="translate(-64.420367)">
    <path
       d="m 479.54102,265.33008 c 0.33326,0.0594 1.26728,0.11947 2.20703,0.16406 0.98796,0.0469 1.90625,0.0781 1.90625,0.0781 l 22.71289,-2.29493 0.12109,0.0957 32.33984,-2.3125 14.5586,-2.50391 1.5625,-3.74414 1.33789,-0.70898 3.48828,-4.92188 4.06836,-0.65625 3.13672,-2.58594 2.54101,-1.30078 -0.16601,-2.42969 4.49023,-3.59179 1.44727,1.34765 4.0293,-3.83398 1.76953,0.74805 1,-3.02539 2.66992,-1.95508 -0.72852,-2.21289 0.59375,-1.19141 -0.64843,0.0762 -51.25782,6.92578 -26.6582,0.83789 -1.04688,2.99414 -17.88476,1.5879 -0.20508,2.1875 -1.43945,1.92382 1.09961,1.33594 -0.95117,2.33008 -0.47852,0.0293 0.30664,0.53515 0.82617,1.44336 -1.34765,1.90821 -2.11524,1.07617 1.23633,1.88672 -1.51562,1.3125 -0.70899,0.74023 -0.38867,2.94141 0.4414,2.32617 -1.59179,1.73242 z"
       id="path62" />
  </g>
  <g
     class="state"
     id="michigan"
     ev="15"
     transform="translate(-64.420367)">
    <path
       d="m 489.2168,67.402344 -11.27539,10.363281 -5.09571,0.441406 -4.51562,4.283203 -1.23047,-0.125 0.19727,0.982422 3.64843,3.158203 9.94922,2.607422 3.43164,0.66211 3.97656,0.53125 2.57813,0.255859 2.38086,1.507812 0.51562,2.31836 2.20704,2.171875 0.38085,2.742187 1.53516,1.908206 1.80664,2.07812 3.13672,-6.871091 0.28125,-2.361328 3.66406,-0.05273 0.19141,-3.246094 2.02148,0.02344 0.12696,1.675781 -0.88672,0.615235 0.002,1.054687 2.3418,-1.080078 1.26758,-1.361328 0.11914,-2.201172 3.24023,-0.757813 2.27149,0.214844 2.27343,-0.896484 0.85157,-1.595703 7.39453,1.791015 2.23437,-2.425781 6.64649,0.0625 -2.35547,-1.992187 -0.8711,-4.851563 1.01953,-2.123047 -9.14062,2.378906 -0.50781,-5.013671 -10.81641,2.695312 -7.41211,4.648438 -8.01367,-1.175782 -4.03711,-5.289062 -4.46484,-0.193359 -2.44727,2.099609 -0.24023,-2.847656 1.2832,-1.408203 2.14844,-2.09961 3.87695,-3.003906 z m 39.80273,22.382812 -2.1875,1.316406 -1.91992,2.302735 2.50391,2.701172 -2.39649,0.648437 -1.62695,1.929688 -0.30274,4.162106 -1.32617,3.88868 -0.50976,-6.937505 -1.06836,0.556645 -4.54102,5.75195 -4.35742,16.4043 6.47266,12.91211 0.22265,7.94921 -4.54687,10.89453 -0.55664,0.33594 0.0488,0.0371 23.46485,-1.09179 -0.0391,-0.34376 15.08203,-1.6875 0.82812,-0.95312 -0.36133,-0.15625 3.71485,-9.00586 4.74414,-6.98828 0.75976,-4.03906 -4.1289,-13.89453 -3.13477,-2.85157 -4.79297,1.72852 c -0.33134,2.8996 -1.81257,4.65607 -3.29101,6.41601 -1.91545,0.5002 -2.95415,0.0443 -3.46094,-2.9375 l 0.60547,-2.08593 2.49023,-0.67774 0.30274,-4.67187 2.19531,-0.35156 0.18164,-6.39454 -3.88086,-9.437496 z"
       id="path65" />
  </g>
  <g
     class="state"
     id="florida"
     ev="30"
     transform="translate(-64.420367)">
    <path
       d="m 521.23242,336.24414 6.28125,-1.44336 6.17969,-1.64062 6.40625,1.75781 7.89844,3.28711 4.23828,5.45703 10.73047,-5.26953 3.88476,-3.53516 6.67383,2.11133 9.10352,9.41016 3.68554,0.58593 3.97657,6.54297 -0.8379,7.91407 -0.0391,6.75976 2.25782,1.5625 1.07421,-3.95312 1.99805,1.84179 -2.90625,6.11524 9.91992,10.4414 6.44141,9.13867 5.14648,2.21485 5.21094,11.32031 10.22461,-3.26758 0.0801,3.46875 2.38867,-7.13867 0.008,-6.2168 0.4668,-12.45117 -2.33203,-6.63281 -11.96289,-18.8418 2.94726,-2.5664 -11.76953,-12.0586 -7.25976,-20.7207 -3.30664,0.17578 -2.2461,-1.3789 -1.88672,1.74218 -0.55664,0.58594 -0.15625,0.85156 1.45117,1.0293 0.43946,3.13476 -1.51172,1.39454 -1.86524,-1.01954 -0.71289,-2.45898 -18.4707,1.10938 -16.4082,1.38281 -3.00977,-4.70899 -14.86328,2.28321 -6.77734,0.46875 -4.74414,0.97265 -7.17578,-0.43554 -1.26758,0.83203 0.25,2.5 3.05859,1.5 -0.36719,2.27539 0.79883,1.38086 -0.84375,1.51758 z"
       id="path68" />
  </g>
  <g
     class="state"
     id="alabama"
     ev="9"
     transform="translate(-64.420367)">
    <path
       d="m 552.93555,322.30469 -1.34375,-3.8086 0.0957,-1.16015 -0.0137,-4.32813 -1.94727,-2.25586 1.25586,-3.18359 c 0,0 -0.006,-0.87944 -0.0586,-1.79883 -0.0265,-0.45969 -0.0655,-0.9278 -0.1211,-1.30273 -0.0278,-0.18747 -0.0607,-0.35157 -0.0977,-0.47852 -0.037,-0.12695 -0.0775,-0.2176 -0.125,-0.25781 -0.0475,-0.0402 -0.0579,-0.0816 -0.0371,-0.125 0.0208,-0.0434 0.0713,-0.0886 0.14258,-0.13281 0.14253,-0.0884 0.36788,-0.17632 0.60547,-0.25391 0.47516,-0.15518 0.99804,-0.26953 0.99804,-0.26953 l -2.46875,-5.85352 -2.20312,-3.09765 -1.66992,-5.68946 -2.68555,-9.30664 -2.3125,-9.53515 -2.2832,-7.40039 -0.4043,-0.96485 -32.36914,2.31446 1.95898,2.40039 -1.43359,25.20117 0.30469,24.57031 2.74218,20.91211 3.38477,-0.19336 -0.0254,-5.66992 1.8164,0.22461 0.2793,2.58008 1.2461,3.96875 5.0664,-1.16602 -0.0566,-0.67187 0.84375,-1.51758 -0.79883,-1.38086 0.36719,-2.27539 -3.05859,-1.5 -0.25,-2.5 1.26758,-0.83203 7.17578,0.43554 4.74414,-0.97265 6.77734,-0.46875 z"
       id="path71" />
  </g>
  <g
     class="state"
     id="mississippi"
     ev="6"
     transform="translate(-64.420367)">
    <path
       d="m 479.54102,265.33008 -0.22071,0.20703 -0.0625,1.92187 -2.25586,0.20899 -0.54492,1.98047 -0.74023,1.26953 -0.12696,1.90234 -0.0625,1.71485 -1.42187,1.59179 -0.98633,1.51563 -0.86328,0.79101 c 0,0 -0.15488,0.16802 -0.29492,0.38282 -0.07,0.1074 -0.13694,0.22616 -0.17774,0.34179 -0.0408,0.11563 -0.0547,0.22676 -0.0234,0.32032 0.0625,0.18711 0.0937,0.50029 0.10937,0.76562 0.0156,0.26533 0.0156,0.48438 0.0156,0.48438 l -1.33008,1.09765 -1.73242,1.04297 0.86132,1.22461 c 0,0 0.2618,0.16392 0.51563,0.375 0.12691,0.10554 0.25219,0.22386 0.3418,0.33789 0.0896,0.11403 0.14379,0.22339 0.1289,0.31641 -0.0149,0.093 -0.10434,0.20292 -0.22851,0.31445 -0.12418,0.11153 -0.2833,0.22593 -0.44141,0.32812 -0.31623,0.20441 -0.625,0.36133 -0.625,0.36133 0,0 -0.29275,0.2265 -0.57812,0.50977 -0.1427,0.14163 -0.28327,0.2976 -0.38477,0.44726 -0.1015,0.14967 -0.16512,0.29236 -0.15039,0.40821 0.0589,0.46337 0.43359,2.46289 0.43359,2.46289 l 0.77149,0.76758 0.18359,1.47656 -0.49414,1.05469 1.53125,1.48242 -0.94531,1.17773 c 0,0 -0.48809,0.81225 -0.60742,1.14844 -0.11934,0.33619 -0.2168,1.27734 -0.2168,1.27734 l 2.33984,0.85743 -0.54492,1 -0.53516,1.47461 1.07227,1.79687 0.3457,1.875 0.61524,1.64063 0.73047,0.11328 0.88671,1.36718 -2.625,1.52149 -1.07617,0.82226 1.14844,0.68555 0.63086,0.8418 c 0,0 -0.66766,0.90952 -0.78711,1.17968 -0.11944,0.27018 -0.87109,1.89063 -0.87109,1.89063 l -1.24024,0.65039 -0.67383,1.49414 -0.85351,0.92774 -0.4375,1.17187 0.0566,1.29883 -1.60938,1.56445 0.61133,1.70313 -1.14062,1.49023 0.0625,1.64258 0.45508,1.875 24.81836,-0.62891 0.10937,1.06446 -0.39063,0.93554 -0.43164,0.95899 -0.0937,1.80664 -0.002,0.99805 0.7207,0.7871 0.54688,0.67969 0.51953,0.74414 0.46484,0.72852 1.05469,0.66211 -0.28906,1.85937 1.28516,0.66992 0.27343,0.12696 1.38282,-0.86914 2.20898,-1.36914 2.63867,-1.58008 2.68555,-0.22266 4.68555,0.0254 1.79882,-0.10156 -2.74218,-20.91211 -0.30469,-24.57031 1.43359,-25.20117 -1.95898,-2.40039 0.5957,-0.043 -0.12109,-0.0957 -22.71289,2.29493 c 0,0 -0.91829,-0.0312 -1.90625,-0.0781 -0.93975,-0.0446 -1.87377,-0.10465 -2.20703,-0.16406 z"
       id="path74" />
  </g>
  <g
     class="state"
     id="winsconsin"
     ev="10"
     transform="translate(-64.420367)">
    <path
       d="m 467.09961,82.365234 -2.36914,-0.242187 -2.56055,-4.519531 -10.48828,4.511718 -3.26953,-0.919922 -0.33203,0.208985 -1.84375,1.837891 0.73437,8.076171 -2.25195,1.958985 -2.47266,1.445312 -1.23242,2.316406 -1.16015,1.107422 1.09375,2.066406 c 0,0 0.52811,0.15219 1.13085,0.36523 0.30139,0.10654 0.62069,0.22873 0.90235,0.35352 0.28166,0.12479 0.5255,0.25333 0.67383,0.37305 0.0742,0.0599 0.11576,0.144 0.13281,0.24609 0.017,0.1021 0.009,0.22144 -0.0176,0.35156 -0.0528,0.26025 -0.1777,0.56247 -0.32226,0.84961 -0.28913,0.57429 -0.65235,1.08985 -0.65235,1.08985 l -1.19336,1.22265 -0.21679,7.18946 3.31054,3.66015 2.18555,0.0605 1.57226,1.17578 2.19532,0.69531 1.55078,2.69336 1.83398,2.31446 3.41797,1.61328 2.16406,1.60156 -0.0937,3.86719 -0.25,1.63086 1.38282,0.36132 v 1.27149 l 1.86523,1.45117 -0.71094,2.45508 -0.62695,3.41406 1.03711,1.33399 1.91797,2.16601 2.86133,0.86524 0.66797,2.05273 0.18164,0.29492 32.51562,-2.41406 0.59375,0.46875 -0.47851,-1.95703 0.1875,-2.38281 -1.94532,-4.50391 -0.14258,-6.49024 1.7793,-1.68945 -0.64648,-7.96094 2.06836,-1.8164 -0.61914,-4.89844 1.76367,-2.26172 0.10937,-2.69922 1.71485,-1.625 -0.89063,-1.57812 0.51367,-2.20313 1.69141,-2.77148 -1.55664,-0.36524 -2.38086,2.85157 -0.74805,3.43164 -2.03515,1.00781 -1.52344,4.65039 -1.73047,0.69336 -0.9375,-1.14453 3.56445,-6.11328 0.99219,-2.17188 -1.80664,-2.07812 -1.53516,-1.908206 -0.38085,-2.742187 -2.20704,-2.171875 -0.51562,-2.31836 -2.38086,-1.507812 -2.57813,-0.255859 -3.97656,-0.53125 -3.43164,-0.66211 -9.94922,-2.607422 -3.64843,-3.158203 z"
       id="path77" />
  </g>
  <g
     class="state"
     id="illinois"
     ev="19"
     transform="translate(-64.420367)">
    <path
       d="m 503.80859,219.85742 c -0.13001,-0.18657 -0.35937,-0.50586 -0.35937,-0.50586 l -0.0606,-1.0957 -0.30273,-1.23633 0.39453,-1.43555 1.26367,-0.49609 -0.16211,-1.32617 0.11133,-2.4043 1.03711,-0.95117 0.002,-1.18359 0.98828,-1.33008 1.36914,-1.3086 0.53516,-1.62109 -0.0547,-0.9082 1.08399,-1.18946 -1.05274,-0.50781 -0.75,-1.71875 -0.0625,-1.24609 -1.05078,-1.42188 -0.29101,-1.4375 1.21679,-1.19922 0.002,-9.67382 -1.39454,-0.68946 -0.0117,-5.84961 -0.17188,-5.96679 -0.33984,-2.03711 -0.76172,-7.87891 -0.70117,-4.77734 1.47851,-0.23633 -0.0391,-0.63281 -1.24023,-0.13672 -1.27735,-2.98047 -1.11719,-4.55859 -1.48046,-0.50586 0.34765,-4.12305 -0.59375,-0.46875 -32.51562,2.41406 0.61523,0.99805 2.02734,1.17578 0.51368,1.68555 1.23437,1.07226 1.45117,0.51758 0.44141,2.4668 c 0,0 -0.18805,1.42173 -0.35156,1.79492 -0.16352,0.37319 -1.48047,2.10547 -1.48047,2.10547 l 0.084,1.57031 v 0.46875 l -1.76953,1.28906 -2.13281,1.66602 c 0,0 -1.54749,-0.44922 -1.92188,-0.44922 -0.37439,0 -1.62304,0.15234 -1.62304,0.15234 l -0.83008,1.09766 -1.49219,1.33008 0.8711,1.72265 1.20703,0.48633 1.35351,2.92383 -0.68359,1.60938 -1.29297,0.19336 0.625,1.77343 -1.77344,1.39258 -2.00586,1.40625 -0.72656,0.82422 1.16992,2.2793 -0.125,1.64453 -0.85937,3.73242 1.12109,3.13672 1.54492,3.16797 2.45508,1.77539 2.00391,2.28906 1.67187,2.32227 1.71875,1.67578 -0.39648,2.77343 1.73047,0.59571 2.29492,-0.71485 2.63476,0.72071 0.125,2.48047 -1.37304,3.39843 -0.36914,2.53711 0.62695,2.51172 1.57227,1.76172 1.94335,1.60547 3.39649,1.29883 1.65039,1.99023 1.69531,2.78516 0.99805,2.76562 -0.7168,1.96875 1.10156,1.8125 0.9961,1.72461 0.92969,0.002 1.4375,0.1914 -0.22852,-0.13086 0.0488,-0.95312 0.6582,-0.7168 1.44141,-1.16211 0.85937,-0.90625 2.21289,1.12305 2.48242,0.80859 1.34571,-0.0801 -0.13672,-1.57617 -0.87109,-0.73242 -0.30664,-0.99023 0.74609,-1.4043 1.03711,-0.21875 1.04883,-1.08594 c 0,0 0.53004,-0.0234 1.09179,-0.0801 0.56175,-0.0567 1.15362,-0.14663 1.27735,-0.27734 0.12374,-0.13072 0.16662,-0.41525 0.17773,-0.66797 0.0111,-0.25272 -0.01,-0.47266 -0.01,-0.47266 l -0.9629,-1.03515 0.0703,-1.26953 z"
       id="path80" />
  </g>
  <g
     class="state"
     id="minnesotta"
     ev="10"
     transform="translate(-64.420367)">
    <path
       d="m 400.57812,132.64844 1.16602,0.44336 57.55078,-1.67383 0.22656,-1.48242 0.0937,-3.86719 -2.16406,-1.60156 -3.41797,-1.61328 -1.83398,-2.31446 -1.55078,-2.69336 -2.19532,-0.69531 -1.57226,-1.17578 -2.18555,-0.0605 -3.31054,-3.66015 0.21679,-7.18946 1.19336,-1.22265 c 0,0 0.36322,-0.51556 0.65235,-1.08985 0.14456,-0.28714 0.26946,-0.58936 0.32226,-0.84961 0.0264,-0.13012 0.0346,-0.24946 0.0176,-0.35156 -0.017,-0.10209 -0.0587,-0.18624 -0.13281,-0.24609 -0.14833,-0.11972 -0.39217,-0.24826 -0.67383,-0.37305 -0.28166,-0.12479 -0.60096,-0.24698 -0.90235,-0.35352 -0.60275,-0.21305 -1.13085,-0.36523 -1.13085,-0.36523 l -1.09375,-2.066406 1.16015,-1.107422 1.23242,-2.316406 2.47266,-1.445312 2.25195,-1.958985 -0.73437,-8.076171 1.84375,-1.837891 0.33203,-0.208985 -0.71094,-0.201171 26.0918,-21.201172 -9.75586,-1.13086 -4.99023,-1.738281 -5.7168,3.041016 -6.8418,-4.136719 -2.52344,0.640625 -8.0664,-5.0625 -6.1211,1.876953 -8.83593,-2.873047 -2.16797,-9.072265 -4.41602,-0.556641 0.60156,5.984375 c -7.15194,-0.01423 -14.36173,-0.114453 -21.61328,-0.291016 l 0.0117,0.195313 0.0684,2.11914 0.73633,1.238282 0.26367,1.373047 -0.35351,1.699218 -0.47266,1.509766 0.9668,2.230469 -0.40235,1.441406 -0.65625,1.462891 0.51953,2.269531 c 0,0 0.23945,0.205935 0.51172,0.519531 0.27227,0.313596 0.57731,0.734756 0.70703,1.166016 0.25946,0.86251 0.34617,1.15644 0.61133,1.669922 0.26517,0.513472 1.24024,3.552734 1.24024,3.552734 l 0.45703,3.169922 -0.375,2.851562 -0.25,2.265625 1.2207,2.445313 -1.02148,0.931641 0.0293,3.509765 0.58594,1.001953 1.84961,2.679688 0.11914,1.699218 -0.36719,3.257813 1.08008,2.207031 -0.5664,1.464844 -1.16602,1.779297 -1.78125,1.669922 0.8457,1.154301 1.31055,2.25976 1.46094,0.48828 0.94336,0.36328 -0.19532,28.41211 z"
       id="path83" />
  </g>
  <g
     class="state"
     id="iowa"
     ev="6"
     transform="translate(-64.420367)">
    <path
       d="m 408.38281,178.87109 48.67578,-1.13476 4.17774,4.63086 0.12109,-1.58203 -1.16992,-2.2793 0.72656,-0.82422 2.00586,-1.40625 1.77344,-1.39258 -0.625,-1.77343 1.29297,-0.19336 0.68359,-1.60938 -1.35351,-2.92383 -1.20703,-0.48633 -0.8711,-1.72265 1.49219,-1.33008 0.83008,-1.09766 c 0,0 1.24865,-0.15234 1.62304,-0.15234 0.37439,0 1.92188,0.44922 1.92188,0.44922 l 2.13281,-1.66602 1.76953,-1.28906 v -0.46875 l -0.084,-1.57031 c 0,0 1.31695,-1.73228 1.48047,-2.10547 0.16351,-0.37319 0.35156,-1.79492 0.35156,-1.79492 l -0.44141,-2.4668 -1.45117,-0.51758 -1.23437,-1.07226 -0.51368,-1.68555 -2.02734,-1.17578 -0.79687,-1.29297 -0.66797,-2.05273 -2.86133,-0.86524 -1.91797,-2.16601 -1.03711,-1.33399 0.62695,-3.41406 0.71094,-2.45508 -1.86523,-1.45117 v -1.27149 l -1.38282,-0.36132 0.0234,-0.14844 -57.55078,1.67383 -1.16602,-0.44336 -1.35351,0.2207 -0.0879,0.87109 0.89258,0.72266 -0.17578,2.30859 1.08984,0.41407 -0.0898,1.48633 -0.78125,1.88867 -0.42969,0.90429 -0.0234,1.24219 -0.95898,1.04492 -0.0781,1.24024 1.07617,1.24609 0.83594,1.81055 -0.40039,0.14844 1.38477,1.14648 0.25,3.38281 2.08203,3.74805 1.70312,2.89648 -0.25,4.25196 2.75586,3.54687 -1.47265,2.91602 1.75,2.18554 v 1.57032 l -1.29297,3.02343 z"
       id="path86" />
  </g>
  <g
     class="state"
     id="missouri"
     ev="10"
     transform="translate(-64.420367)">
    <path
       d="m 408.38281,178.87109 0.83985,1.22071 0.46484,2.30273 2.64844,3.47656 0.25,1.35352 1.50586,0.96484 3.62304,1.46094 2.45899,1.60156 -1.83789,0.95117 -0.82032,2.73829 0.13672,1.63281 2.48047,1.73828 -0.11914,1.87109 2.25,1.22461 0.49414,1.68946 1.12305,32.84961 -0.29102,-0.006 0.39063,0.80078 -0.86719,6.65429 56.3457,-1.64257 1.5586,2.21679 -3.29883,5.19727 7.91602,-0.47461 0.95117,-2.33008 -1.09961,-1.33594 1.43945,-1.92382 0.20508,-2.1875 1.62695,-0.14454 -0.33398,-0.85156 0.91211,-1.13281 1.43945,0.37695 0.78906,-0.61718 -0.69726,-0.88282 0.37304,-0.78125 0.86524,-0.3125 -0.26758,-2.22656 v -1.22266 l -0.67187,-0.38281 -1.4375,-0.1914 -0.92969,-0.002 -0.9961,-1.72461 -1.10156,-1.8125 0.7168,-1.96875 -0.99805,-2.76562 -1.69531,-2.78516 -1.65039,-1.99023 -3.39649,-1.29883 -1.94335,-1.60547 -1.57227,-1.76172 -0.62695,-2.51172 0.36914,-2.53711 1.37304,-3.39843 -0.125,-2.48047 -2.63476,-0.72071 -2.29492,0.71485 -1.73047,-0.59571 0.39648,-2.77343 -1.71875,-1.67578 -1.67187,-2.32227 -2.00391,-2.28906 -2.45508,-1.77539 -1.54492,-3.16797 -1.12109,-3.13672 0.85937,-3.73242 0.004,-0.0625 -4.17774,-4.63086 z"
       id="path89" />
  </g>
  <g
     class="state"
     id="arkansas"
     ev="6"
     transform="translate(-64.420367)">
    <path
       d="m 431.71289,299.44727 37.32813,-1.91407 c 0.0303,-0.17277 0.0571,-0.36735 0.0937,-0.4707 0.11933,-0.33619 0.60742,-1.14844 0.60742,-1.14844 l 0.94531,-1.17773 -1.53125,-1.48242 0.49414,-1.05469 -0.18359,-1.47656 -0.77149,-0.76758 c 0,0 -0.37469,-1.99952 -0.43359,-2.46289 -0.0147,-0.11585 0.0489,-0.25854 0.15039,-0.40821 0.1015,-0.14966 0.24207,-0.30563 0.38477,-0.44726 0.28537,-0.28327 0.57812,-0.50977 0.57812,-0.50977 0,0 0.30877,-0.15692 0.625,-0.36133 0.15811,-0.10219 0.31723,-0.21659 0.44141,-0.32812 0.12417,-0.11153 0.21361,-0.22144 0.22851,-0.31445 0.0149,-0.093 -0.0393,-0.20238 -0.1289,-0.31641 -0.0896,-0.11403 -0.21489,-0.23235 -0.3418,-0.33789 -0.25383,-0.21108 -0.51563,-0.375 -0.51563,-0.375 l -0.86132,-1.22461 1.73242,-1.04297 1.33008,-1.09765 c 0,0 0,-0.21905 -0.0156,-0.48438 -0.0156,-0.26533 -0.0469,-0.57851 -0.10937,-0.76562 -0.0312,-0.0936 -0.0174,-0.20469 0.0234,-0.32032 0.0408,-0.11563 0.10772,-0.23439 0.17774,-0.34179 0.14004,-0.2148 0.29492,-0.38282 0.29492,-0.38282 l 0.86328,-0.79101 0.98633,-1.51563 1.42187,-1.59179 0.0625,-1.71485 0.12696,-1.90234 0.74023,-1.26953 0.54492,-1.98047 2.25586,-0.20899 0.0625,-1.92187 0.97852,-0.91211 1.59179,-1.73242 -0.4414,-2.32617 0.38867,-2.94141 0.70899,-0.74023 1.51562,-1.3125 -1.23633,-1.88672 2.11524,-1.07617 1.34765,-1.90821 -0.82617,-1.44336 -0.30664,-0.53515 -7.4375,0.44531 3.29883,-5.19727 -1.5586,-2.21679 -56.3457,1.64257 -0.006,0.043 0.94727,4.2461 0.48633,3.59179 1.34765,5.86133 -0.0644,5.21485 -0.29492,27.32031 2.69531,1.29101 3.25977,-1.22265 z"
       id="path92" />
  </g>
  <g
     class="state"
     id="louisiana"
     ev="8"
     transform="translate(-64.420367)">
    <path
       d="m 431.71289,299.44727 0.36719,15.64257 2.4375,2.15039 -0.0391,4.05079 2.76953,0.91601 0.7539,4.64258 1.50391,1.36133 -0.23828,4.43945 -2.4043,4.24219 0.70703,3.32031 -2.5039,0.35547 1.54492,2.72461 -0.25,3.04101 -2.03321,3.8125 0.4629,0.98243 0.91796,-0.33985 9.48829,-1.36328 6.22265,3.24219 6.75,-0.002 2.48242,0.0801 3.15821,0.79493 0.92773,-1.17969 0.99219,-1.63672 2.7207,1.60937 3,0.57422 -0.95703,2.90821 2.5957,2.11328 1.49805,-2.35547 1.5332,-0.0547 -0.0312,2.28711 2.34766,1.05469 3.16016,-3.06445 2.01367,0.44921 3.24023,1.38868 1.17774,-3.60352 -0.97657,-3.22656 4.61133,3.5625 2.39258,-0.0742 3.47852,2.37109 -0.43946,3.24414 3.50391,-3.47265 -1.97461,-2.70899 -4.06445,-1.50781 -2.68946,-1.71289 3.92969,-3.66797 0.46289,-1.94727 -1.10156,-2.08593 -2.67773,1.91211 -2.36915,-1.46875 3.68946,-2.46875 0.25976,-0.16211 -0.27343,-0.12696 -1.28516,-0.66992 0.28906,-1.85937 -1.05469,-0.66211 -0.46484,-0.72852 -0.51953,-0.74414 -0.54688,-0.67969 -0.7207,-0.7871 0.002,-0.99805 0.0937,-1.80664 0.43164,-0.95899 0.39063,-0.93554 -0.10937,-1.06446 -24.81836,0.62891 -0.45508,-1.875 -0.0625,-1.64258 1.14062,-1.49023 -0.61133,-1.70313 1.60938,-1.56445 -0.0566,-1.29883 0.4375,-1.17187 0.85351,-0.92774 0.67383,-1.49414 1.24024,-0.65039 c 0,0 0.75165,-1.62045 0.87109,-1.89063 0.11945,-0.27016 0.78711,-1.17968 0.78711,-1.17968 l -0.63086,-0.8418 -1.14844,-0.68555 1.07617,-0.82226 2.625,-1.52149 -0.88671,-1.36718 -0.73047,-0.11328 -0.61524,-1.64063 -0.3457,-1.875 -1.07227,-1.79687 0.53516,-1.47461 0.54492,-1 -2.33984,-0.85743 c 0,0 0.0547,-0.41739 0.12305,-0.80664 z"
       id="path95" />
  </g>
  <g
     class="state"
     id="northdakota"
     ev="3"
     transform="translate(-64.420367)">
    <path
       d="m 318.14062,90.210938 81.8125,3.765624 -0.60742,-1.242187 0.36719,-3.257813 -0.11914,-1.699218 -1.84961,-2.679688 -0.58594,-1.001953 -0.0293,-3.509765 1.02148,-0.931641 -1.2207,-2.445313 0.25,-2.265625 0.375,-2.851562 -0.45703,-3.169922 c 0,0 -0.97507,-3.039254 -1.24024,-3.552734 -0.26516,-0.513482 -0.35187,-0.807404 -0.61133,-1.669922 -0.12972,-0.43126 -0.43476,-0.85242 -0.70703,-1.166016 -0.27227,-0.313596 -0.51172,-0.519531 -0.51172,-0.519531 l -0.51953,-2.269531 0.65625,-1.462891 0.40235,-1.441406 -0.9668,-2.230469 0.47266,-1.509766 0.35351,-1.699218 -0.26367,-1.373047 -0.73633,-1.238282 -0.0684,-2.11914 -0.0117,-0.195313 c -23.40742,-0.569931 -47.28286,-1.978696 -71.32812,-4.220703 z"
       id="path98" />
  </g>
  <g
     class="state"
     id="southdakota"
     ev="3"
     transform="translate(-64.420367)">
    <path
       d="m 318.14062,90.210938 -1.24804,15.427732 0.0176,0.0527 -2.66797,31.43945 59.20703,3.0957 3.98633,-0.11328 0.59375,0.85547 1.85547,1.19141 1.53711,1.3164 2.01757,0.69922 0.67969,-1.01953 1.00391,-0.30664 1.23633,-0.14649 1.6875,-0.0898 h 2.20898 l 2.00391,0.35742 0.5957,0.69727 1.64453,0.68945 1.72852,0.61328 1.84375,1.39063 1.07031,2.18945 1.35156,-0.50195 -0.83594,-1.81055 -1.07617,-1.24609 0.0781,-1.24024 0.95898,-1.04492 0.0234,-1.24219 0.42969,-0.90429 0.78125,-1.88867 0.0898,-1.48633 -1.08984,-0.41407 0.17578,-2.30859 -0.89258,-0.72266 0.0879,-0.87109 2.05273,-0.33594 0.19532,-28.41211 -0.94336,-0.36328 -1.46094,-0.48828 -1.31055,-2.25976 -0.8457,-1.154301 1.78125,-1.669922 1.16602,-1.779297 0.5664,-1.464844 -0.47266,-0.964844 z"
       id="path101" />
  </g>
  <g
     class="state"
     id="nebraska"
     ev="5"
     transform="translate(-64.420367)">
    <path
       d="m 310.21289,167.62891 1.07227,1.10937 23.4375,1.55274 -0.75586,14.93164 46.10547,2.59375 32.70507,0.44726 -0.4414,-2.39258 -2.64844,-3.47656 -0.46484,-2.30273 -2.21875,-3.22657 1.29297,-3.02343 v -1.57032 l -1.75,-2.18554 1.47265,-2.91602 -2.75586,-3.54687 0.25,-4.25196 -1.70312,-2.89648 -2.08203,-3.74805 -0.25,-3.38281 -1.38477,-1.14648 -0.95117,0.35351 -1.07031,-2.18945 -1.84375,-1.39063 -1.72852,-0.61328 -1.64453,-0.68945 -0.5957,-0.69727 -2.00391,-0.35742 h -2.20898 l -1.6875,0.0898 -1.23633,0.14649 -1.00391,0.30664 -0.67969,1.01953 -2.01757,-0.69922 -1.53711,-1.3164 -1.85547,-1.19141 -0.59375,-0.85547 -3.98633,0.11328 -59.20703,-3.0957 -2.60352,30.66992 z"
       id="path104" />
  </g>
  <g
     class="state"
     id="kansas"
     ev="6"
     transform="translate(-64.420367)">
    <path
       d="m 334.06836,183.22852 -0.30859,0.31054 -2.40625,50.72656 92.52734,1.68165 -1.12305,-32.84961 -0.49414,-1.68946 -2.25,-1.22461 0.11914,-1.87109 -2.48047,-1.73828 -0.13672,-1.63281 0.82032,-2.73829 1.83789,-0.95117 -2.45899,-1.60156 -3.62304,-1.46094 -1.50586,-0.96484 0.1914,1.03906 -32.70507,-0.44726 -46.10547,-2.59375 z"
       id="path107" />
  </g>
  <g
     class="state"
     id="oklahoma"
     ev="7"
     transform="translate(-64.420367)">
    <path
       d="m 318.71094,240.36133 37.3457,1.84961 -0.69531,31.29297 3.98242,2.97656 1.25,-1.33789 0.8457,1.38476 1.98828,-0.69726 2.40821,3.76758 3.71289,0.60937 2.8789,0.38672 2.25,1.08789 1.0293,-1.4082 3.18359,1.11133 2.82227,4.125 2.51172,-2.22657 3.44336,1.99219 2.35742,-0.13867 1.31641,2.62109 2.83984,-3.62695 1.97656,1.5 1.54492,-1.31641 2.75782,3.23243 2.78711,-0.375 2.45312,-1.65626 3.89649,-0.25 0.35546,-0.75585 h 2.01368 l 1.78125,0.72851 0.73828,-0.85351 2.45703,-0.75 1.69531,1.3125 1.81641,1.05273 2.13086,1.75781 1.05664,0.76367 1.89844,0.0684 0.2832,-26.23632 0.0644,-5.21485 -1.34765,-5.86133 -0.48633,-3.59179 -0.94727,-4.2461 0.87305,-6.69726 -0.39063,-0.80078 -92.23632,-1.67579 0.0176,-0.37695 -12.00976,-1.42773 z"
       id="path110" />
  </g>
  <g
     class="state"
     id="texas"
     ev="40"
     transform="translate(-64.420367)">
    <path
       d="m 318.71094,240.36133 -5.87891,71.50586 -47.31641,-4.93946 -0.43945,3.33594 2.79688,2.20899 1.79492,3.95898 4.33398,2.71094 2.56055,3.7207 1.68359,2.58203 5.28321,3.58008 2.94726,3.96289 0.51758,2.39844 1.64844,3.36914 -0.2793,5.4707 1.46484,2.30274 2.8379,2.47461 2.92773,2.69726 3.29102,1.89258 1.92578,1.28516 2.99023,2.14648 3.79883,2 1.28516,-1.39844 1.26171,-1.89453 1.51563,-0.50781 0.35547,-1.58399 0.97851,-2.58007 1.60938,-2.74024 2.60937,-1.26367 3.11524,-1.01367 1.76758,0.41211 8.125,1.59375 3.07617,1.18359 3.87109,5.52539 3.83985,3.02735 2.15429,5.41796 2.53711,7.26758 1.81836,3.20899 4.04688,4.12695 1.33789,4.07227 3.73828,2.0664 0.4414,3.47657 0.42774,5.57421 2.77148,3.51953 2.15625,4.99024 2.68946,-0.1875 2.93359,2.97852 3.85352,0.85546 2.79882,2.03125 6.63282,-0.20703 5.1289,4.83789 2.35547,-2.01562 -1.45703,-4.75586 -2.33594,-7.98047 0.75196,-3.63477 c 0,0 2.11104,-4.77065 1.8457,-5.44531 -0.26533,-0.67466 2.82422,-6.42383 2.82422,-6.42383 l 5.0625,-5.10351 5.53515,-3.59766 8.1211,-5.27148 6.13867,-3.0625 5.98828,-6.65235 5.88281,-3.92968 7.60157,-2.8125 -0.4629,-0.98243 2.03321,-3.8125 0.25,-3.04101 -1.54492,-2.72461 2.5039,-0.35547 -0.70703,-3.32031 2.4043,-4.24219 0.23828,-4.43945 -1.50391,-1.36133 -0.7539,-4.64258 -2.76953,-0.91601 0.0391,-4.05079 -2.4375,-2.15039 -0.5957,-25.34765 -3.25977,1.22265 -2.69531,-1.29101 0.0117,-1.08399 -1.89844,-0.0684 -1.05664,-0.76367 -2.13086,-1.75781 -1.81641,-1.05273 -1.69531,-1.3125 -2.45703,0.75 -0.73828,0.85351 -1.78125,-0.72851 h -2.01368 l -0.35546,0.75585 -3.89649,0.25 -2.45312,1.65626 -2.78711,0.375 -2.75782,-3.23243 -1.54492,1.31641 -1.97656,-1.5 -2.83984,3.62695 -1.31641,-2.62109 -2.35742,0.13867 -3.44336,-1.99219 -2.51172,2.22657 -2.82227,-4.125 -3.18359,-1.11133 -1.0293,1.4082 -2.25,-1.08789 -2.8789,-0.38672 -3.71289,-0.60937 -2.40821,-3.76758 -1.98828,0.69726 -0.8457,-1.38476 -1.25,1.33789 -3.98242,-2.97656 0.69531,-31.29297 z"
       id="path113" />
  </g>
  <g
     class="state"
     id="wyoming"
     ev="3"
     transform="translate(-64.420367)">
    <path
       d="m 232.62695,143.10938 -2.5664,14.80859 81.57812,9.88281 5.27149,-62.10937 -0.0176,-0.0527 -0.0137,0.16602 -77.14649,-9.869143 -1.45703,8.507813 0.11523,0.18555 -5.58007,38.50976 z"
       id="path116" />
  </g>
  <g
     class="state"
     id="colorado"
     ev="10"
     transform="translate(-64.420367)">
    <path
       d="m 244.89648,224.69727 0.11524,0.0156 37.64648,4.5957 36.33594,3.0918 0.35742,0.18945 0.01,-0.1289 12.00976,1.42773 2.38868,-50.34961 0.30859,-0.31054 0.6543,-12.9375 -23.4375,-1.55274 -1.07227,-1.10937 -56.91992,-6.89649 z"
       id="path119" />
  </g>
  <g
     class="state"
     id="newmexico"
     ev="5"
     transform="translate(-64.420367)">
    <path
       d="m 232.42773,313.7793 11.99805,1.48632 0.51367,-6.97265 19.41016,1.39648 0.72656,0.57422 0.43945,-3.33594 47.31641,4.93946 6.51953,-79.27735 -0.35742,-0.18945 -36.33594,-3.0918 -37.64648,-4.5957 -0.12695,-0.0156 z"
       id="path122" />
  </g>
  <g
     class="state"
     id="montana"
     ev="4"
     transform="translate(-64.420367)">
    <path
       d="m 238.27539,104.44336 1.45703,-8.507813 77.14649,9.869143 5.13867,-63.550784 C 280.81539,38.41217 239.12325,32.133338 198.4707,23.455078 l -3.07031,16.816406 2.18359,4.929688 0.006,5.537109 3.0293,2.960938 1.69727,2.960937 0.85742,2.814453 1.60937,1.71875 1.14063,0.941407 0.62109,1.537109 2.45899,0.566406 -0.64063,3.160157 -1.85351,3.414062 -0.98243,2.195312 0.51954,1.6875 -0.15821,2.074219 -2.35937,0.445313 0.6289,2.794922 1.72657,2.685546 2.8125,-1.095703 1.52539,-1.396484 1.08789,1.068359 -0.30274,2.347657 0.73047,2.83789 1.49219,2.990235 0.69141,1.472656 -0.36329,2.349609 0.81641,1.451172 2.11719,0.375 0.49219,0.787109 0.17968,1.896485 0.0859,3.609373 1.58008,1.00781 0.68359,-1.45898 1.44141,-0.1875 1.70312,0.0547 0.4336,1.2207 0.74218,-0.73242 1.74805,-0.77149 1.71289,0.54883 2,-0.20117 1.14649,0.88281 2.38281,0.18555 1.10156,-0.77148 1.39649,-2.089848 1.53906,2.060548 0.81836,2.3457 z"
       id="path125" />
  </g>
  <g
     class="state"
     id="idaho"
     ev="4"
     transform="translate(-64.420367)">
    <path
       d="m 198.91211,137.87695 33.89844,5.26172 5.58007,-38.50976 -0.71093,-1.14649 -0.81836,-2.3457 -1.53906,-2.060548 -1.39649,2.089848 -1.10156,0.77148 -2.38281,-0.18555 -1.14649,-0.88281 -2,0.20117 -1.71289,-0.54883 -1.74805,0.77149 -0.74218,0.73242 -0.4336,-1.2207 -1.70312,-0.0547 -1.44141,0.1875 -0.68359,1.45898 -1.58008,-1.00781 -0.0859,-3.609373 -0.17968,-1.896485 -0.49219,-0.787109 -2.11719,-0.375 -0.81641,-1.451172 0.36329,-2.349609 -0.69141,-1.472656 -1.49219,-2.990235 -0.73047,-2.83789 0.30274,-2.347657 -1.08789,-1.068359 -1.52539,1.396484 -2.8125,1.095703 -1.72657,-2.685546 -0.6289,-2.794922 2.35937,-0.445313 0.15821,-2.074219 -0.51954,-1.6875 0.98243,-2.195312 1.85351,-3.414062 0.64063,-3.160157 -2.45899,-0.566406 -0.62109,-1.537109 -1.14063,-0.941407 -1.60937,-1.71875 -0.85742,-2.814453 -1.69727,-2.960937 -3.0293,-2.960938 -0.006,-5.537109 -2.18359,-4.929688 3.07031,-16.816406 c -3.26611,-0.69723 -6.53525,-1.388989 -9.78711,-2.117187 l -9.58398,41.396484 0.44141,2.402344 -0.32618,2.876953 4.06836,7.314453 -6.72265,9.177734 -0.0781,1.712891 -5.72656,4.693359 -0.68555,2.326172 3.48828,3.958985 -2.55273,4.746094 -6.48828,27.04687 34.47265,8.48829 z"
       id="path128" />
  </g>
  <g
     class="state"
     id="utah"
     ev="6"
     transform="translate(-64.420367)">
    <path
       d="m 244.89648,224.69727 8.39649,-63.96485 -23.23242,-2.81445 2.5664,-14.80859 -33.71484,-5.23243 -15.125,76.37305 53.10547,9.4082 z"
       id="path131" />
  </g>
  <g
     class="state"
     id="arizona"
     ev="11"
     transform="translate(-64.420367)">
    <path
       d="m 232.42773,313.7793 12.45704,-89.08203 -7.99219,-1.03907 -53.10547,-9.4082 -2.42969,12.26367 -2.92578,2.90821 -1.86328,-2.29688 -2.42188,-0.85547 -2.55078,0.5 -0.19726,12.7832 0.27344,2.08399 -1.7129,1.52539 -1.125,0.20312 0.48243,0.7168 0.125,2.51953 0.875,2.14453 0.74609,0.25782 -0.28516,3.39648 2.86524,3.55664 -0.74414,1.35742 -2.9375,2.30469 -1.99219,1.48438 -0.70703,2.34765 -0.44727,3.25586 -1.59375,1.48828 -1.58789,0.52539 -0.44922,1.00196 1.06055,1.60156 -1.34766,1.53711 1.29297,2.14648 1.47852,0.6875 -0.78711,2.39258 -0.66211,1.33984 -3.58008,0.0352 -0.16015,5.0918 44.0039,25.90234 27.20313,3.23047 z"
       id="path134" />
  </g>
  <g
     class="state"
     id="nevada"
     ev="6"
     transform="translate(-64.420367)"
     style="fill:#000000">
    <path
       d="m 168.83398,243.36523 1.125,-0.20312 1.7129,-1.52539 -0.27344,-2.08399 0.19726,-12.7832 2.55078,-0.5 2.42188,0.85547 1.86328,2.29688 2.92578,-2.90821 17.63281,-89.03515 -34.47265,-8.48829 -0.0254,0.10352 -33.23828,-7.33594 -0.25,0.01 -12.53907,46.74219 z"
       inkscape:label="NV"
       id="path137"
       style="display:inline;fill:#000000" />
  </g>
  <g
     id="g160"
     transform="translate(-64.420367)">
    <path
       style="fill:#000000"
       d="m 146.08789,24.609375 -1.55859,0.300781 2.26758,8.484375 h 0.38476 l 1.58398,-4.884765 1.57032,4.884765 h 0.38476 l 2.26758,-8.484375 -1.54687,-0.300781 -1.00782,4.525391 -1.47656,-4.427735 h -0.38476 l -1.46289,4.535157 z m 9.80469,0.121094 -3.14453,8.412109 1.45312,0.431641 0.57617,-1.65625 h 2.48438 l 0.51562,1.632812 1.46289,-0.408203 -2.97461,-8.412109 z m 0.16797,3.335937 0.76757,2.507813 h -1.5957 z m -3.11328,11.97461 -1.00782,1.236328 3.85157,2.699218 -4.88477,6.361329 h 7.00781 v -1.488282 h -3.89844 l 3.95899,-5.136718 z m -3.72071,0.02344 -3.79101,3.15625 1.04297,1.140625 1.54882,-1.451172 v 7.427735 h 1.5586 V 40.064453 Z m 554.83008,9.484375 -5.50781,5.208984 5.6289,5.314454 1.01954,-1.332032 -3.82813,-3.287109 h 3.45703 v -1.439453 h -3.44531 l 3.85352,-3.240234 z m -12.99609,0.15625 -2.58008,10.007813 1.64453,0.335937 1.30859,-5.710937 1.78711,5.591797 h 0.4336 l 1.78711,-5.591797 1.29687,5.710937 1.64258,-0.335937 -2.58008,-10.007813 h -0.4082 l -1.95508,5.951172 -1.95703,-5.951172 z M 363.11914,54.68555 v 10.464844 h 0.36133 l 6.38281,-5.28125 -6.38281,-5.183594 z m -7.70312,0.107422 v 10.117187 h 1.56054 v -5.820312 l 4.24805,5.951172 h 0.41992 V 54.914062 h -1.56055 v 5.794922 l -4.24804,-5.916015 z m 9.26367,2.724609 2.89258,2.351563 -2.89258,2.40039 z m -105.24024,5.064453 -2.58007,10.007813 1.64453,0.335937 1.30859,-5.710937 1.78711,5.591797 h 0.43164 l 1.78906,-5.591797 1.29492,5.710937 1.64454,-0.335937 -2.58008,-10.007813 h -0.40821 l -1.95507,5.951172 -1.95703,-5.951172 z m 6.78125,0.121094 v 1.486328 h 2.38672 v 8.496094 h 1.57227 v -8.496094 h 2.38867 v -1.486328 z m 432.95899,3.166016 -6.39649,7.822265 h 5.1836 V 76.0918 h 1.56054 v -2.400391 h 1.28321 v -1.427734 h -1.28321 v -6.394531 z m -1.20117,3.671875 v 2.722656 h -2.20704 z m -338.47071,1.308593 v 1.751953 l 3.07227,1.486329 -2.5332,1.800781 2.82031,2.148437 -3.40821,1.667969 v 1.798828 l 6.06055,-3.251953 -2.98828,-2.375 2.66406,-2.027344 z m -227.32226,3.871094 -4.58399,5.21875 4.58399,5.257813 h 0.29883 l 4.57226,-5.257813 -4.57226,-5.21875 z m 5.96289,0.01172 -0.0117,10.236328 h 1.56055 V 82.91602 l 1.23632,-0.923828 2.85547,3.228515 1.16406,-0.996094 -2.75976,-3.121093 2.55469,-1.822266 -6.24024,-4.548828 z m -5.8086,2.052734 2.68946,3.167969 -2.68946,3.179687 -2.69922,-3.179687 z m 7.35743,0.646485 2.50781,1.835937 -2.50781,1.945313 z m 127.24804,1.314453 -6.39453,7.822265 h 5.1836 v 2.400391 h 1.55859 v -2.400391 h 1.28515 v -1.427734 h -1.28515 v -6.394531 z m 158.53907,1.570312 v 10.117188 h 1.56054 v -5.820313 l 4.24805,5.951172 h 0.41992 V 80.4375 h -1.56055 v 5.794922 l -4.24804,-5.916016 z m -8.4004,0.01172 -2.58007,10.007813 1.64453,0.335937 1.30859,-5.710937 1.78711,5.591796 h 0.43359 l 1.78711,-5.591796 1.29688,5.710937 1.64258,-0.335937 -2.58008,-10.007813 h -0.4082 l -1.95508,5.953125 -1.95703,-5.953125 z m -151.33789,2.089844 v 2.722656 h -2.20898 z m -129.63671,8.597656 -3.75586,3.119141 2.49609,1.8125 -2.85742,2.148437 4.11719,3.396482 h 0.33593 l 4.11524,-3.396482 -2.86719,-2.125 2.49609,-1.835937 -3.74414,-3.119141 z m 0.16796,1.691406 1.61914,1.38086 -1.61914,1.138671 -1.58398,-1.126953 z m 283.88477,3.736328 -3.79102,3.15625 1.04297,1.140626 1.54883,-1.453126 v 7.429696 h 1.56055 V 96.443359 Z m 5.74805,0.04883 -4.1875,5.207036 4.1875,5.25586 h 0.32422 l 4.21289,-5.25586 -4.21289,-5.207036 z m 226.02734,0.05859 -1.51172,0.697266 2.84375,5.6875 v 3.86328 h 1.57227 v -3.83985 l 2.83203,-5.71093 -1.51172,-0.697266 -2.11133,4.751946 z m -8.82031,0.132813 v 10.115233 h 1.56054 v -5.81836 l 4.24805,5.95117 h 0.41992 V 96.802734 h -1.56054 v 5.796876 l -4.24805,-5.916016 z m -506.83985,0.0078 1.90821,1.416016 -1.90821,1.644531 -1.9082,-1.632812 z m 289.80078,1.888672 2.33985,3.130861 -2.33985,3.14453 -2.33984,-3.14453 z m -233.25,1.621091 v 10.46485 h 0.35938 l 6.38477,-5.28125 -6.38477,-5.1836 z m 167.32422,0.0195 -4.63281,3.17969 4.17774,3.90039 -3.2168,2.1836 0.92383,1.24804 4.70312,-3.28711 -4.17578,-3.90039 3.19336,-2.09961 z m 3.03516,0.0117 v 10.46485 h 0.36133 l 6.38281,-5.28125 -6.38281,-5.1836 z m -173.50391,0.20899 v 9.98437 h 1.58399 v -9.98437 z m 281.54493,0.0859 -1.66797,0.32422 2.60547,10.05469 h 0.41992 l 1.91992,-5.93945 1.89648,5.93945 h 0.40625 l 2.65235,-10.05469 -1.66797,-0.32422 -1.30664,5.9043 -1.78906,-5.74805 h -0.35938 l -1.86133,5.74805 z m 9.43359,0.27539 v 9.98438 h 1.58398 v -9.98438 z m -286.27539,2.23047 2.89258,2.35157 -2.89258,2.40039 z m 170.36133,0.0312 2.89257,2.35157 -2.89257,2.40039 z m 279.15039,9.72266 -1.00782,1.23633 3.85157,2.69922 -4.88477,6.35937 h 7.00781 v -1.48828 h -3.89843 l 3.95898,-5.13477 z m 10.04297,0.0723 -3.75586,3.11914 2.49609,1.8125 -2.85547,2.14843 4.11524,3.39453 h 0.33593 l 4.11719,-3.39453 -2.86914,-2.125 2.49609,-1.83593 -3.74414,-3.11914 z m -127.61719,0.85937 -2.58008,10.00781 1.64258,0.33594 1.30859,-5.71289 1.78907,5.5918 h 0.43164 l 1.7871,-5.5918 1.29688,5.71289 1.64453,-0.33594 -2.58008,-10.00781 h -0.4082 l -1.95703,5.95117 -1.95508,-5.95117 z m 8.51953,0.11914 v 9.98438 h 1.58398 v -9.98438 z m 119.26563,0.71289 1.62109,1.37891 -1.62109,1.14062 -1.58399,-1.12695 z m -294.24415,1.8457 v 1.75196 l 3.07032,1.48828 -2.53125,1.79883 2.82031,2.14843 -3.4082,1.66797 v 1.80078 l 6.06054,-3.25195 -2.98828,-2.37695 2.66406,-2.02735 z m -163.36523,0.0879 -6.39648,7.82421 h 5.18359 v 2.40039 h 1.56055 v -2.40039 h 1.2832 v -1.42773 h -1.2832 v -6.39648 z m 276.51758,0.3125 -3.79297,3.15624 1.04492,1.14063 1.54883,-1.45117 v 7.42773 h 1.55859 v -10.27343 z m 5.74804,0.0488 -4.1875,5.20899 4.1875,5.25586 h 0.32422 l 4.21094,-5.25586 -4.21094,-5.20899 z m 175.34376,1.68946 1.9082,1.41601 -1.9082,1.64258 -1.90821,-1.63086 z m -175.17579,0.39843 2.33985,3.13282 -2.33985,3.14257 -2.33984,-3.14257 z m -206.72851,0.22461 -1.66797,0.32422 2.60547,10.05664 h 0.41992 l 1.91992,-5.93945 1.89453,5.93945 h 0.40821 l 2.65234,-10.05664 -1.66797,-0.32422 -1.30859,5.9043 -1.78711,-5.74805 h -0.35938 l -1.86133,5.74805 z m 10.22461,0.0137 -1.51172,0.69531 2.84375,5.6875 v 3.86523 h 1.57226 v -3.83984 l 2.83204,-5.71289 -1.51172,-0.69531 -2.11328,4.75195 z m -87.13086,0.98437 v 2.72461 h -2.20703 z m 332.71679,9.67578 -3.79296,3.15625 1.04492,1.14063 1.54883,-1.45118 v 7.42774 h 1.55859 v -10.27344 z m 8.17188,0.27735 -5.71094,0.0117 -0.42187,5.09961 h 3.51758 l -3.2168,4.24805 1.2832,0.99609 4.84961,-6.67187 h -4.75195 l 0.15625,-2.19531 4.29492,-0.0137 z m -259.63867,5.24804 v 1.75196 l 3.07226,1.48828 -2.53125,1.80078 2.82032,2.14844 -3.40821,1.66796 v 1.79883 l 6.06055,-3.25195 -2.98828,-2.375 2.66406,-2.0293 z m 161.26367,5.04492 -3.74414,9.93555 1.5957,0.44336 0.66016,-1.94336 h 3.17969 l 0.61328,1.91992 1.5957,-0.4082 -3.54101,-9.94727 z m -6.52734,0.10743 v 9.98437 h 1.58398 v -9.98437 z m 6.68359,3.44335 1.06836,3.39649 h -2.20899 z m -284.19336,3.84571 -3.74414,9.93555 1.5957,0.44335 0.66016,-1.94335 h 3.18164 l 0.61133,1.91992 1.5957,-0.40821 -3.53906,-9.94726 z m 4.8125,0.10742 v 1.42773 h 3.63672 l -3.88867,8.55664 h 6.02344 v -1.42773 l -3.64844,0.0117 3.90039,-8.56836 z m 210.33789,0.54687 -5.50976,5.20899 5.6289,5.31445 1.01953,-1.33203 -3.82812,-3.28711 h 3.45703 v -1.43945 h -3.44531 l 3.85351,-3.24024 z m -12.8164,0.14454 v 10.11523 h 1.55859 v -5.82031 l 4.24805,5.95312 h 0.41992 v -10.1289 h -1.5586 v 5.79687 l -4.24804,-5.91601 z m 272.2207,2.42187 -3.79297,3.15625 1.04492,1.14063 1.54883,-1.45313 v 7.42969 h 1.55859 v -10.27344 z m -21.83985,0.0488 -0.0117,10.22461 h 1.55859 V 159 l 5.13672,-3.38281 -6.32422,-4.54883 z m 27.55079,0 -4.0918,5.97656 h 5.78516 l -3.10938,3.38281 1.06836,1.16407 4.47656,-5.01563 -3.7793,-5.50781 z m -17.48243,0.13281 -3.74414,9.93555 1.59571,0.44336 0.66015,-1.94336 H 618.25 l 0.61133,1.91992 1.5957,-0.4082 -3.53906,-9.94727 z M 153.93164,151.34961 155,154.74609 h -2.20898 z m 480.29102,1.97461 1.5,2.29297 h -3 z m -26.18555,0.37109 2.62891,1.88477 -2.62891,1.70508 z m 8.67773,1.05664 1.06641,3.39649 h -2.20703 z m -180.21093,1.72852 -4.47461,5.04101 3.77929,5.51954 h 0.34766 l 4.0918,-5.98829 h -5.79493 l 3.11915,-3.41992 z m 120.63476,5.33984 -4.58398,5.22071 4.58398,5.25586 h 0.30078 l 4.57227,-5.25586 -4.57227,-5.22071 z m 5.95313,0.25196 v 9.98437 h 1.57031 v -4.38086 h 3.57617 v 4.38086 h 1.57227 v -9.98437 h -1.57227 v 4.10351 h -3.57617 v -4.10351 z m -128.61524,0.39648 h 3.01172 l -1.51172,2.30469 z m -276.69922,1.4082 -4.47461,5.04102 3.7793,5.51953 h 0.34766 l 4.09179,-5.98828 h -5.79492 l 3.11914,-3.41992 z m 399.51758,0.008 2.6875,3.16796 -2.6875,3.17969 -2.69922,-3.17969 z M 365.93164,165 l -5.71289,0.0117 -0.41992,5.10156 h 3.51562 l -3.21484,4.24805 1.2832,0.99609 4.84766,-6.67383 h -4.75195 l 0.15625,-2.19531 4.29687,-0.0117 z m 155.29492,1.5 v 10.11523 h 1.56055 v -5.82031 l 4.24805,5.95313 h 0.41992 v -10.12891 h -1.56055 v 5.79688 L 521.64648,166.5 Z m -3.38281,0.13086 v 9.98437 h 1.58398 v -9.98437 z m -32.85937,2.55469 v 9.98437 h 1.58398 v -9.98437 z m 3.38281,0 v 9.98437 h 5.5332 v -1.48828 h -3.97266 v -8.49609 z M 155.75,169.86523 h 3.01172 l -1.51172,2.30469 z m 58.39258,0.73829 v 9.98437 h 6.30078 v -9.98437 h -1.56055 v 8.49609 h -3.17969 v -8.49609 z m 7.32031,0 v 1.48828 h 2.38672 v 8.49609 h 1.57227 v -8.49609 h 2.38867 v -1.48828 z m -112.21484,1.43945 -5.50782,5.18359 5.56836,5.31641 1.14063,-1.24805 -4.51367,-4.08008 4.46484,-3.9375 z m 5.42383,0.14258 -3.74415,9.93554 1.59571,0.44532 0.66015,-1.94532 h 3.18164 l 0.61133,1.92188 1.59571,-0.4082 -3.53907,-9.94922 z m 0.15624,3.55273 1.06836,3.39649 h -2.20898 z m 444.29688,2.32813 -3.79102,3.15625 1.04297,1.14062 1.54883,-1.45117 v 7.42773 h 1.5586 v -10.27343 z m 1.67969,0.28906 v 1.48828 h 4.51172 l -4.0918,8.02734 1.45312,0.76758 4.95508,-10.2832 z m 35.29101,3.87109 -1.67968,0.41992 3.3125,9.96094 h 0.43164 l 3.58789,-9.93554 -1.67969,-0.40821 -2.07617,6.49219 z m -10.39258,0.0117 -1.66796,0.32422 2.60546,10.05664 h 0.41993 l 1.91992,-5.93945 1.89453,5.93945 h 0.4082 l 2.65235,-10.05664 -1.66797,-0.32422 -1.3086,5.9043 -1.7871,-5.74805 h -0.35938 l -1.86133,5.74805 z m -65.47265,0.38867 -3.79102,3.15625 1.04297,1.13868 1.54883,-1.45118 v 7.42774 h 1.56055 v -10.27149 z m 1.67969,0.28711 v 1.48828 h 4.51367 l -4.09375,8.0293 1.45312,0.76758 4.95508,-10.28516 z m -35.88282,2.26758 -3.79101,3.15625 1.04297,1.13867 1.54882,-1.45117 v 7.42773 h 1.56055 v -10.27148 z m 5.71289,0.0469 -4.09179,5.97656 h 5.7832 l -3.10742,3.38476 1.06836,1.16407 4.47461,-5.01758 -3.7793,-5.50781 z m -203.23437,0.0391 -5.50781,5.18554 5.56836,5.31446 1.14062,-1.24805 -4.51367,-4.08008 4.46484,-3.93554 z m 5.48437,0 -4.58398,5.2207 4.58398,5.25586 h 0.30079 l 4.57031,-5.25586 -4.57031,-5.2207 z m -72.97851,1.30664 -4.47461,5.04101 3.7793,5.51954 h 0.34765 l 4.0918,-5.98829 h -5.79492 l 3.11914,-3.41992 z m 73.13476,0.75781 2.6875,3.16797 -2.6875,3.17969 -2.70117,-3.17969 z m 197.77344,0.15235 1.5,2.29296 h -3 z m -375.3164,0.85351 -6.39454,7.82227 h 5.1836 v 2.40039 h 1.56054 v -2.40039 h 1.28321 v -1.42774 h -1.28321 v -6.39453 z m -6.03516,0.22656 -5.71289,0.0117 -0.41992,5.10156 h 3.51757 l -3.21679,4.24805 1.2832,0.9961 4.84961,-6.67188 h -4.75195 l 0.15429,-2.19727 4.29688,-0.0117 z m 4.83594,3.44532 v 2.72265 h -2.20899 z m 500.61132,0.0898 -1.67968,0.41992 3.3125,9.96094 h 0.43164 l 3.58789,-9.93555 -1.67969,-0.4082 -2.07617,6.49219 z m 8.67579,0.17969 -3.74219,9.9375 1.5957,0.44336 0.66016,-1.94336 h 3.17969 l 0.61132,1.91992 1.59571,-0.4082 -3.53907,-9.94922 z m -405.70703,0.2832 h 3.01171 l -1.51171,2.30469 z m 232.05273,2.21875 -4.58399,5.2207 4.58399,5.25586 h 0.29883 l 4.57226,-5.25586 -4.57226,-5.2207 z m -12.14453,0.13281 -2.58008,10.00782 1.64453,0.33593 1.30664,-5.71289 1.78906,5.5918 h 0.43165 l 1.7871,-5.5918 1.29688,5.71289 1.64453,-0.33593 -2.58008,-10.00782 h -0.4082 l -1.95703,5.95117 -1.95508,-5.95117 z m 185.95508,0.91797 1.06836,3.39649 h -2.20704 z m -173.65625,1.01367 2.68945,3.16797 -2.68945,3.17969 -2.69922,-3.17969 z m -71.13282,1.31836 -4.63086,3.17969 4.17579,3.90039 -3.2168,2.18359 0.92383,1.24805 4.70507,-3.28711 -4.17578,-3.90039 3.19141,-2.09961 z m 215.09571,0.39453 -6.39649,7.82422 h 5.1836 v 2.39844 h 1.56054 v -2.39844 h 1.28321 v -1.42969 h -1.28321 v -6.39453 z m -221.33594,0.36133 -3.02344,2.93946 v -2.71094 h -1.45117 v 8.51953 h 1.45117 v -2.91602 l 3.15625,3.16797 0.9961,-0.99609 -3.73243,-3.64844 3.58789,-3.35937 z m -86.13477,2.5957 -3.79101,3.15626 1.04297,1.13867 1.54883,-1.45117 v 7.42773 h 1.56054 v -10.27149 z m 5.74805,0.0469 -4.1875,5.20898 4.1875,5.25586 h 0.32422 l 4.21289,-5.25586 -4.21289,-5.20898 z m 300.52148,0.66797 v 2.72265 h -2.20703 z m -300.35351,1.42187 2.33984,3.13086 -2.33984,3.14453 -2.33984,-3.14453 z m 327.73828,4.65821 v 1.75195 l 3.07227,1.48828 -2.53125,1.80078 2.82031,2.14844 -3.4082,1.66797 v 1.79883 l 6.05859,-3.25196 -2.98828,-2.375 2.66406,-2.02929 z m -1.9668,0.0723 -3.79297,3.15625 1.04493,1.14063 1.54687,-1.45313 v 7.42774 h 1.56055 v -10.27149 z m -176.50781,2.64649 -3.79101,3.15429 1.04492,1.14063 1.54687,-1.45117 v 7.42773 h 1.56055 V 211.0293 Z m 5.74805,0.0469 -4.1875,5.20899 4.1875,5.25586 h 0.32422 l 4.21289,-5.25586 -4.21289,-5.20899 z m 0.16797,2.08789 2.34179,3.13282 -2.34179,3.14257 -2.33985,-3.14257 z m -72.97461,1.22266 -4.47461,5.04101 3.7793,5.51954 h 0.34765 l 4.0918,-5.98829 h -5.79492 l 3.11914,-3.41992 z m 159.02929,3.10156 -1.51367,0.69727 2.84571,5.6875 v 3.86328 h 1.57031 v -3.83985 l 2.83203,-5.71093 -1.51172,-0.69727 -2.11133,4.75195 z m -3.37304,0.0117 -3.49219,3.61328 v -3.36133 h -1.56055 v 9.9961 h 1.56055 V 224.125 l 3.7207,3.875 1.15235,-1.11523 -4.38086,-4.3086 4.15234,-3.99609 z m 17.36328,0.0117 -3.75586,3.12109 2.49609,1.8125 -2.85547,2.14649 4.11524,3.39648 h 0.33594 l 4.11718,-3.39648 -2.86914,-2.12305 2.4961,-1.83594 -3.74414,-3.12109 z m 0.16797,1.69336 1.62109,1.3789 -1.62109,1.14063 -1.58399,-1.12891 z M 373.77734,220.375 h 3.01172 l -1.51172,2.30469 z m 175.21485,2.81445 1.9082,1.41602 -1.9082,1.64258 -1.90625,-1.63086 z m 80.02343,10.57227 -4.47656,5.03906 3.78125,5.52149 h 0.34766 l 4.0918,-5.98829 h -5.79688 l 3.12109,-3.41992 z m -6.0957,0.0234 -3.79297,3.15625 1.04493,1.14062 1.54882,-1.45312 v 7.42773 h 1.5586 v -10.27148 z m -9.07226,0.0371 -5.50782,5.18359 5.56836,5.31641 1.14063,-1.24805 -4.51367,-4.08008 4.46484,-3.9375 z m -12.81641,0.11914 v 10.11523 h 1.56055 v -5.81836 l 4.24804,5.95117 h 0.41993 v -10.1289 h -1.56055 v 5.79687 l -4.24805,-5.91601 z M 626.98828,239.75 H 630 l -1.51172,2.30273 z m -92.86914,3.66797 -3.79297,3.15625 1.04492,1.14062 1.54688,-1.45117 v 7.42774 h 1.56055 v -10.27344 z m 5.35156,0 -3.79297,3.15625 1.04493,1.14062 1.54687,-1.45117 v 7.42774 h 1.56055 v -10.27344 z m -20.05273,0.15625 v 10.11719 h 1.56055 v -5.82032 l 4.24804,5.95118 h 0.41992 v -10.12696 h -1.56054 v 5.79492 l -4.24805,-5.91601 z m -7.36719,0.13281 v 1.48828 h 2.38672 v 8.4961 h 1.57227 v -8.4961 h 2.38867 v -1.48828 z m -311.68945,2.20508 -3.74414,9.93555 1.5957,0.44336 0.66016,-1.94336 h 3.17968 l 0.61133,1.91992 1.59766,-0.4082 -3.54102,-9.94727 z m 4.8125,0.10742 v 1.42774 h 3.63476 l -3.88671,8.55664 h 6.02343 v -1.42774 l -3.64843,0.0117 3.90039,-8.56836 z m -4.65625,3.44336 1.06836,3.39649 h -2.20899 z m 67.01953,0.62305 v 10.11718 h 1.56055 v -5.82031 l 4.24804,5.95117 h 0.41992 v -10.12695 h -1.56054 v 5.79492 l -4.24805,-5.91601 z m 9.88867,0.0137 -2.58008,10.00781 1.64453,0.33594 1.30665,-5.71289 1.78906,5.5918 h 0.43164 l 1.78906,-5.5918 1.29492,5.71289 1.64453,-0.33594 -2.58007,-10.00781 h -0.40821 l -1.95703,5.95117 -1.95508,-5.95117 z m 103.80469,4.58008 -4.58399,5.21875 4.58399,5.25781 h 0.30078 l 4.57227,-5.25781 -4.57227,-5.21875 z m 11.00586,0 -3.49219,3.61133 v -3.35938 h -1.56055 v 9.99609 h 1.56055 v -3.625 l 3.71875,3.87696 1.15234,-1.11719 -4.3789,-4.30664 4.15039,-3.99609 z m 5.57812,0.25195 v 1.48828 h 4.51367 l -4.09179,8.02735 1.45117,0.76757 4.95508,-10.2832 z m 53.92578,0.46484 -0.0117,10.23633 h 1.55859 v -2.05273 l 1.23633,-0.92383 2.85742,3.22852 1.16211,-0.9961 -2.75977,-3.12109 2.55664,-1.82227 -6.24023,-4.54883 z m -4.99218,0.13282 -3.74414,9.93554 1.5957,0.44336 0.66016,-1.94336 h 3.17968 l 0.61328,1.91993 1.59571,-0.40821 -3.54102,-9.94726 z m -65.36133,1.21484 2.68945,3.16797 -2.68945,3.17969 -2.69922,-3.17969 z m 217.75781,0.70117 -4.63086,3.17969 4.17578,3.90039 -3.21679,2.18359 0.92578,1.24805 4.70312,-3.28711 -4.17578,-3.90039 3.19141,-2.09961 z m 7.46485,0 -5.50782,5.1836 5.56836,5.3164 1.13867,-1.24804 -4.51171,-4.08008 4.46484,-3.93555 z m -153.32227,0.65039 2.50977,1.83594 -2.50977,1.94531 z m -6.38281,0.98438 1.06836,3.39648 h -2.20899 z m -244.22657,2.93554 -3.79296,3.1543 1.04492,1.14063 1.54687,-1.45117 v 7.42773 h 1.56055 v -10.27149 z m 5.35157,0 -3.79297,3.1543 1.04492,1.14063 1.54687,-1.45117 v 7.42773 h 1.56055 v -10.27149 z m 70.8789,4.47461 -5.71289,0.0117 -0.41992,5.09961 h 3.51563 l -3.21485,4.24805 1.28321,0.99609 4.84765,-6.67187 h -4.75195 l 0.15625,-2.19531 4.29687,-0.0117 z m 172.23242,5.11719 -4.47656,5.03906 3.7793,5.52149 h 0.34766 l 4.09375,-5.98828 h -5.79688 l 3.11914,-3.41992 z m 149.97266,2.13281 -4.0918,5.97657 h 5.78321 l -3.10742,3.38476 1.06835,1.16406 4.47657,-5.01757 -3.78125,-5.50782 z m 0.17969,2.25586 1.5,2.29297 h -3 z m -79.26367,0.50977 -3.74414,9.93555 1.5957,0.44531 0.66016,-1.94531 h 3.18164 l 0.61132,1.91992 1.59571,-0.40821 -3.53907,-9.94726 z m 4.98047,0.10742 v 9.98438 h 5.53125 v -1.48828 h -3.97071 v -8.4961 z m -77.89844,0.98242 h 3.01172 l -1.51172,2.30469 z m 119.97656,2.35547 -5.73633,5.20899 6.63672,5.27929 h 0.48047 v -6.21679 h -1.56055 v 3.38476 l -3.28906,-2.51953 4.65625,-3.97266 z m -46.90234,0.10742 1.06836,3.39453 h -2.20899 z m 52.98633,0.0488 -3.74415,9.93555 1.59571,0.44531 0.66015,-1.94531 h 3.17969 l 0.61328,1.91992 1.59571,-0.4082 -3.54102,-9.94727 z m -81.36524,2.89844 -4.63281,3.17969 4.17578,3.89843 -3.21484,2.18555 0.92382,1.24805 4.70313,-3.28906 -4.17578,-3.9004 3.19336,-2.0996 z m -12.24023,0.13086 -2.58008,10.00781 1.64453,0.33594 1.30859,-5.71094 1.78711,5.5918 h 0.43164 l 1.78907,-5.5918 1.29492,5.71094 1.64453,-0.33594 -2.58008,-10.00781 h -0.4082 l -1.95508,5.95312 -1.95703,-5.95312 z m 93.76171,0.52344 1.06836,3.39453 h -2.20898 z m -49.93164,8.99609 -4.09375,5.97656 h 5.78516 l -3.10742,3.38477 1.06641,1.16406 4.47656,-5.01758 -3.7793,-5.50781 z m 0.17969,2.25586 1.5,2.29297 h -3 z m 48.67774,1.27539 -4.47657,5.03906 3.78125,5.51953 h 0.34766 l 4.0918,-5.98828 h -5.79688 l 3.1211,-3.41992 z m -6.09571,0.0234 -3.79297,3.15625 1.04493,1.13867 1.54687,-1.45117 v 7.42773 h 1.56055 V 296.2109 Z m -80.41797,3.01758 -4.47656,5.03906 3.78125,5.51953 h 0.34766 l 4.0918,-5.98633 h -5.79493 l 3.11914,-3.41992 z m 84.48633,2.94531 h 3.01172 l -1.51172,2.30469 z m -86.51367,3.04297 h 3.01172 l -1.51172,2.30273 z m -120.83008,2.78515 -1.5,0.68555 2.50977,4.43945 -2.62891,4.70313 1.5,0.68359 2.08789,-4.11523 2.08789,4.11523 1.5,-0.67187 -2.64062,-4.66797 2.52148,-4.48633 -1.5,-0.68555 -1.98047,3.85352 z m -8.38672,0.25196 v 1.48828 h 2.38672 v 8.49609 h 1.57227 v -8.49609 h 2.38867 v -1.48828 z m 99.99414,2.07031 -3.74414,9.9375 1.59766,0.44336 0.6582,-1.94336 h 3.18164 l 0.61133,1.91992 1.5957,-0.4082 -3.53906,-9.94922 z m -9.75585,0.10937 v 9.98438 h 5.5332 v -1.48828 h -3.97266 v -8.4961 z m 9.9121,3.44336 1.06836,3.39649 h -2.20898 z m -93.81445,10.41993 -6.39648,7.82421 h 5.18359 v 2.40039 h 1.56055 v -2.40039 h 1.2832 v -1.42773 h -1.2832 v -6.39648 z m 6.41992,0 -4.1875,5.20898 4.1875,5.25586 h 0.32422 l 4.21094,-5.25586 -4.21094,-5.20898 z m 0.16797,2.08789 2.33985,3.13281 -2.33985,3.14453 -2.33984,-3.14453 z m 83.67578,0.0918 -3.75781,3.11914 2.49609,1.8125 -2.85546,2.14844 4.11718,3.39453 h 0.33594 l 4.11524,-3.39453 -2.86719,-2.125 2.49414,-1.83594 -3.74219,-3.11914 z m -91.46484,1.49219 v 2.72461 h -2.20703 z m 91.63281,0.19922 1.61914,1.38086 -1.61914,1.13867 -1.58398,-1.12695 z m 0,3.98437 1.90625,1.41602 -1.90625,1.64453 -1.9082,-1.63281 z m -314.10742,6.23047 -3.49219,3.61328 v -3.36132 h -1.55859 v 9.99609 h 1.55859 v -3.62305 l 3.72071,3.875 1.15234,-1.11523 -4.38086,-4.3086 4.15234,-3.99609 z m -10.03125,0.14453 -3.74414,9.93555 1.5957,0.44531 0.66016,-1.94531 h 3.17969 l 0.61132,1.91992 1.59766,-0.4082 -3.54101,-9.94727 z m 0.15625,3.55274 1.06836,3.39453 h -2.20899 z m 472.27148,11.62304 v 9.98438 h 1.57227 v -4.32031 h 3.45703 v -1.48828 H 603.125 v -2.6875 h 4.35742 v -1.48829 z m 6.94922,0 v 9.98438 h 5.53125 v -1.48828 h -3.97265 v -8.4961 z m -478.3457,0.85547 v 1.75196 l 3.07227,1.48828 -2.53125,1.79883 2.82031,2.14843 -3.4082,1.66797 v 1.80078 l 6.05859,-3.25195 -2.98828,-2.37695 2.66406,-2.02735 z m 470.11328,15.06836 v 1.75196 l 3.07227,1.48828 -2.53321,1.79883 2.82032,2.14843 -3.40821,1.66797 v 1.80078 l 6.06055,-3.25195 -2.98828,-2.37695 2.66406,-2.02735 z m 10.32031,0.11914 -4.1875,5.20899 4.1875,5.25586 h 0.32422 l 4.21094,-5.25586 -4.21094,-5.20899 z m 0.16797,2.08789 2.33985,3.13282 -2.33985,3.14453 -2.33984,-3.14453 z m -369.82422,20.92383 v 9.98438 h 1.57227 v -4.37891 h 3.57422 v 4.37891 h 1.57226 v -9.98438 h -1.57226 v 4.10547 h -3.57422 v -4.10547 z m 8.51953,0 v 9.98438 h 1.58399 v -9.98438 z m -1.14648,16.04297 -6.39648,7.82422 h 5.18554 v 2.40039 h 1.5586 V 416.625 h 1.28515 v -1.42773 h -1.28515 v -6.39649 z m -1.19922,3.67383 v 2.72266 h -2.20898 z"
       id="path156" />
    <path
       style="fill:#000000"
       d="m 660.72461,45.255859 v 10.115235 h 1.55859 v -5.820313 l 4.24805,5.953125 h 0.41992 V 45.375 h -1.55859 v 5.796875 l -4.24805,-5.916016 z m 7.9082,0.13086 v 9.984375 h 1.57031 v -4.38086 h 3.57618 v 4.38086 h 1.57226 v -9.984375 h -1.57226 v 4.103515 h -3.57618 v -4.103515 z m -25.66797,4.919922 -1.67968,0.419921 3.3125,9.960938 h 0.43164 l 3.58789,-9.935547 -1.67969,-0.408203 -2.07617,6.492188 z m 6.07227,0.289062 v 1.488281 h 2.38867 v 8.496094 h 1.57227 v -8.496094 h 2.38672 v -1.488281 z m 21.26367,10.833985 -6.39648,7.824218 h 5.18359 v 2.400391 h 1.56055 v -2.400391 h 1.2832 v -1.427734 h -1.2832 v -6.396484 z m -1.20117,3.671874 v 2.72461 h -2.20703 z m -23.5957,1.416016 v 1.751953 l 3.07031,1.488281 -2.53125,1.800782 2.82031,2.148437 -3.4082,1.667969 v 1.798828 l 6.06054,-3.251953 -2.98828,-2.375 2.66407,-2.029297 z m 64.51757,19.767578 -2.58007,10.007813 1.64453,0.335937 1.30664,-5.710937 1.78906,5.591797 h 0.43164 l 1.78711,-5.591797 1.29688,5.710937 1.64453,-0.335937 -2.58008,-10.007813 h -0.4082 l -1.95704,5.951172 -1.95507,-5.951172 z m 11.54297,0.01172 -3.74414,9.935547 1.59766,0.445312 0.6582,-1.945312 h 3.18164 l 0.61133,1.919922 1.5957,-0.408203 -3.53906,-9.947266 z m 0.15625,3.552734 1.06836,3.394532 h -2.20898 z m -6.58789,12.55078 -3.79101,3.15625 1.04297,1.13867 1.54882,-1.45117 v 7.42774 h 1.5586 v -10.27149 z m 5.35157,0 -3.79102,3.15625 1.04297,1.13867 1.54883,-1.45117 v 7.42774 h 1.56054 v -10.27149 z m -19.75196,27.08008 -0.0117,10.23633 h 1.56055 v -2.05078 l 1.23633,-0.92383 2.85547,3.22656 1.16406,-0.99609 -2.75977,-3.11914 2.55664,-1.82422 -6.24023,-4.54883 z m 20.66406,0 -6.39453,7.82422 h 5.1836 v 2.40039 h 1.56054 v -2.40039 h 1.28321 v -1.42774 h -1.28321 v -6.39648 z m -12.6582,0.24023 v 9.98438 h 1.58399 v -9.98438 z m -6.45703,2.46094 2.50781,1.83594 -2.50781,1.94336 z m 17.91602,0.9707 v 2.72461 h -2.20704 z m -30.85743,9.60157 -5.50781,5.18359 5.56641,5.31641 1.14062,-1.24805 -4.51172,-4.08008 4.46485,-3.93555 z m 1.61914,0.25195 v 1.48828 h 2.38868 v 8.49609 h 1.57226 v -8.49609 h 2.38672 v -1.48828 z m 10.48829,0 v 1.48828 h 4.51171 l -4.09179,8.02734 1.45117,0.76954 4.95703,-10.28516 z M 688.79102,156.8125 685,159.96875 l 1.04297,1.14063 1.54883,-1.45313 v 7.42773 h 1.56054 V 156.8125 Z m 7.83593,0.0488 -6.39453,7.82422 h 5.1836 v 2.39843 h 1.56054 v -2.39843 h 1.28321 v -1.42774 h -1.28321 v -6.39648 z m -28.84765,0.10742 v 10.11523 h 1.56054 v -5.81836 l 4.24805,5.95118 h 0.41992 v -10.12696 h -1.56054 v 5.79493 l -4.24805,-5.91602 z m 10.9082,0.12109 v 7.28321 l -2.55664,-2.2793 -1.04297,1.19922 4.57227,4.03125 h 0.48046 l 0.11915,-10.23438 z m 16.74023,3.44336 v 2.72461 h -2.20898 z m -9.52343,12.99414 v 1.75196 l 3.07226,1.48828 -2.53125,1.80078 2.82031,2.14648 -3.4082,1.66797 v 1.80078 l 6.0586,-3.25195 -2.98633,-2.37695 2.66406,-2.02735 z m -5.78321,0.084 -5.50781,5.20898 5.62695,5.31446 1.02149,-1.33204 -3.82813,-3.28711 h 3.45508 v -1.43945 h -3.44336 l 3.85157,-3.24023 z m -12.67187,0.0371 v 10.46289 h 0.35937 l 6.38477,-5.2793 -6.38477,-5.18359 z m 1.56055,2.83008 2.89062,2.35351 -2.89062,2.40039 z m 16.93945,13.77343 -3.79102,3.15625 1.04297,1.13868 1.54883,-1.45118 v 7.42774 h 1.56055 v -10.27149 z m -14.55469,0.0469 v 10.46484 h 0.35938 l 6.38476,-5.27929 -6.38476,-5.18555 z m 20.30274,0 -4.1875,5.20898 4.1875,5.25586 h 0.32421 l 4.2129,-5.25586 -4.2129,-5.20898 z m -28.70313,0.12109 -2.58008,10.00781 1.64453,0.33594 1.30664,-5.71289 1.78907,5.5918 h 0.43164 l 1.78711,-5.5918 1.29687,5.71289 1.64453,-0.33594 -2.58007,-10.00781 h -0.40821 l -1.95703,5.95117 -1.95508,-5.95117 z m 28.87109,1.9668 2.33985,3.13281 -2.33985,3.14453 -2.33984,-3.14453 z m -18.91211,0.74414 2.89258,2.35352 -2.89258,2.39843 z m 9.26172,13.08984 v 1.75196 l 3.07227,1.48828 -2.53125,1.80078 2.82031,2.14844 -3.4082,1.66796 v 1.79883 l 6.06055,-3.25195 -2.98829,-2.375 2.66407,-2.0293 z m -5.6875,0.10938 -5.50781,5.18359 5.56836,5.31641 1.14063,-1.24805 -4.51368,-4.08008 4.46485,-3.9375 z m -12.67187,0.0117 v 10.46289 h 0.35937 l 6.38477,-5.2793 -6.38477,-5.18359 z m 1.56055,2.83203 2.89062,2.35156 -2.89062,2.40039 z M 241.10938,392.82617 v 9.98438 h 1.57226 v -4.37891 h 3.57422 v 4.37891 h 1.57226 v -9.98438 h -1.57226 v 4.10547 h -3.57422 v -4.10547 z m 8.51953,0 v 9.98438 h 1.58398 v -9.98438 z m -1.14649,16.04297 -6.39648,7.82422 h 5.18554 v 2.40039 h 1.5586 v -2.40039 h 1.28515 v -1.42774 h -1.28515 v -6.39648 z m -1.19922,3.67383 v 2.72265 h -2.20898 z"
       id="path158" />
  </g>
  <g
     class="state"
     id="oregon"
     ev="8"
     transform="translate(-64.420367)"
     style="fill:#000000">
    <path
       d="m 105.11328,45.423828 -0.14648,0.435547 -2.73828,13.136719 -4.232426,8.152344 -4.011719,12.261718 -3.466797,5.322266 -3.144531,4.582031 -1.066406,3.263672 -2.650391,1.335937 0.933594,2.919922 -0.822266,2.804688 -0.722656,2.236328 -0.425781,5.10156 1.146484,1.19922 -0.05469,0.13281 47.304685,13.41407 -0.0117,0.0449 0.25,-0.01 33.23828,7.33594 6.51367,-27.15039 2.55273,-4.746094 -3.48828,-3.958985 0.68555,-2.326172 5.72656,-4.693359 0.0781,-1.712891 6.72265,-9.177734 -3.88086,-6.978516 -0.15039,0.02344 -3.49804,-0.808594 -5.06055,-1.345703 -6.00586,-1.123047 -4.14062,-0.994141 -5.22657,-0.75 -4.24804,-0.246093 -3.55079,0.130859 -3.46289,0.267578 -0.74609,0.542969 -3.61328,-0.316406 -1.30078,-1.316407 -1.47071,1.09961 -3.70703,0.375 -1.45117,-1.816406 -5.02148,-1.738282 -4.84571,-0.06055 -3.40625,-0.28125 -2.07617,-2.683594 0.12891,-4.960938 -0.36719,-1.904297 -1.58789,-2.207031 -3.91602,-1.486328 -4.53906,-1.158203 z"
       id="path144"
       style="fill:#000000" />
  </g>
  <g
     class="state"
     id="california"
     ev="54"
     transform="translate(-64.420367)"
     style="fill:#000000">
    <path
       d="m 160.63867,279.46289 3.58008,-0.0352 0.66211,-1.33984 0.78711,-2.39258 -1.47852,-0.6875 -1.29297,-2.14648 1.34766,-1.53711 -1.06055,-1.60156 0.44922,-1.00196 1.58789,-0.52539 1.59375,-1.48828 0.44727,-3.25586 0.70703,-2.34765 1.99219,-1.48438 2.9375,-2.30469 0.74414,-1.35742 -2.86524,-3.55664 0.28516,-3.39648 -0.74609,-0.25782 -0.875,-2.14453 -0.125,-2.51953 -50.85157,-75.57226 12.55078,-46.78711 -47.304682,-13.41407 -1.4375,3.46485 0.333984,5.80859 -1.876953,3.91211 -1.949219,5.91797 -4.083984,3.56445 -0.902344,3.49219 4.138672,7.77539 -0.02734,4.97656 -1.667969,2.16407 -1.09375,7.86718 4.660157,8.7461 0.826171,4.48633 -2.054687,1.60156 5.177734,5.50976 -0.800781,10.47071 2.566406,4.33789 1.994141,0.11132 0.154297,3.93165 -2.222657,1.54101 v 3.79883 l 4.462891,11.41992 3.59375,5.81641 1.074219,2.00586 -1.455078,1.27929 2.52539,3.23633 -0.533203,5.70313 -2.335937,3.55468 13.787102,5.16993 2.59961,4.04101 6.40821,4.64844 2.1914,0.29687 v 4.8125 l 4.15821,0.74414 7.29101,10.66211 -0.25,7.11915 1.25977,3.55664 30.42382,3.35351 z"
       id="path147"
       style="fill:#000000" />
  </g>
  <g
     class="state"
     id="alaska"
     ev="3"
     transform="translate(-64.420367)"
     style="fill:#000000">
    <path
       d="m 104.4897,362.43506 5.57982,-1.92488 1.94836,-4.52495 -6.74248,-0.5838 -5.814169,-3.70948 -1.614932,-5.5879 6.461181,-2.57711 4.71035,2.70642 3.236,-0.80153 -5.11602,-6.64486 -3.41227,-4.68586 0.33867,-3.85788 h 3.99269 l 4.74684,-5.58766 9.3994,-3.63248 2.54789,-2.04418 2.89693,2.67737 6.93886,1.59374 7.66871,1.51425 9.13245,0.37768 2.22163,2.07558 9.92522,48.13714 3.91371,-0.70895 7.02763,5.40131 5.15426,-4.57891 4.22959,3.6094 9.84911,9.45941 5.02731,1.01214 1.40311,0.40517 0.93916,2.9205 0.32706,3.79708 -2.54858,1.51167 c 0,0 -1.62966,0.005 -1.99741,0.42843 -0.36776,0.42356 -2.50409,1.8192 -2.50409,1.8192 l -4.63972,-4.71888 -8.66837,-7.23771 -3.24395,-3.56299 -4.35361,-2.11734 -4.99857,-2.55273 -3.1107,-0.9618 -9.52482,-0.25815 -5.07867,-1.50266 -4.72092,3.7084 -9.01991,4.40653 -2.79011,-0.015 0.59244,-6.61328 -0.97738,-0.78523 -3.8996,5.4871 -2.25371,2.0629 c 0,0 2.17797,1.91755 2.41291,2.10684 0.23495,0.18928 3.3743,3.41496 3.3743,3.41496 l 0.0988,4.58334 -4.31538,3.11296 -3.82138,-2.64933 -2.76099,-1.43832 -9.78383,9.98403 -13.900433,4.55197 -11.886156,4.71218 -9.718194,1.20177 12.168654,-6.51263 16.581319,-6.11424 11.04907,-9.99974 1.19038,-4.59452 -7.91657,-1.04133 -4.29777,-0.5935 -1.91386,-7.07182 -4.337896,-1.82984 -3.940458,-6.25989 4.031258,-6.71912 3.269956,-3.10258 z"
       id="path150"
       style="display:inline;fill:#000000" />
  </g>
  <g
     class="state"
     id="washington"
     ev="12"
     transform="translate(-64.420367)"
     style="fill:#000000">
    <path
       d="m 105.11328,45.423828 1.02539,0.167969 4.53906,1.158203 3.91602,1.486328 1.58789,2.207031 0.36719,1.904297 -0.12891,4.960938 2.07617,2.683594 3.40625,0.28125 4.84571,0.06055 5.02148,1.738282 1.45117,1.816406 3.70703,-0.375 1.47071,-1.09961 1.30078,1.316407 3.61328,0.316406 0.74609,-0.542969 3.46289,-0.267578 3.55079,-0.130859 4.24804,0.246093 5.22657,0.75 4.14062,0.994141 6.00586,1.123047 5.06055,1.345703 3.49804,0.808594 0.15039,-0.02344 -0.1875,-0.335937 0.32618,-2.876953 -0.44141,-2.402344 9.58398,-41.396484 c -19.56625,-4.381537 -38.87546,-9.29178 -57.7207,-14.7949222 l -1.69336,1.3476562 2.54688,4.248047 -2.21875,4.158203 -4.37891,3.404297 -5.31445,-1.326172 -12.13282,-7.611328 -1.36523,6.720703 1.51953,3.867187 -0.35742,7.972657 -0.008,5.955078 -0.66993,4.875 z"
       id="path141"
       style="fill:#000000" />
  </g>
  <g
     class="state"
     id="hawaii"
     ev="4"
     transform="translate(-64.420367)"
     style="fill:#000000">
    <path
       d="m 219.2168,362.74219 -2.04297,3.91797 3.7539,2.40234 3.31836,-0.76172 -0.20898,-5.20312 z m 24.71875,8.38672 -2.97461,2.62695 1.32031,3.6543 4.13281,-0.11328 L 248.5332,377 Z m 11.46484,8.22851 c 0,0 -2.18639,0.84341 -1.29687,1.32227 0.88951,0.47886 4.89843,4.95703 4.89843,4.95703 l 4.97266,4.15039 5.36328,-1.24023 3.83984,-1.24415 -6.05273,-5.47265 -3.91406,-0.3086 z m 20.85742,14.48047 -1.31445,1.68164 0.98828,3.04102 -3.05664,3.78711 2.33594,6.15039 0.23047,4.20117 3.23437,2.41406 c 0,0 2.74118,-2.67879 3.04883,-3.34961 0.30764,-0.67082 3.14844,-1.68945 3.14844,-1.68945 l 6.25,-3.75781 -3.75977,-5.19532 -4.08789,-4.36132 -3.97851,-0.42774 z"
       id="path153"
       style="display:inline;fill:#000000" />
  </g>
</svg>
